<svg width="24" height="24" viewBox="0 0 24 24" fill="none" xmlns="http://www.w3.org/2000/svg">
	<path d="M16.5 9.33333C16.5 10.3281 16.1841 11.4687 15.681 12.6441C15.1803 13.8138 14.5087 14.9848 13.8304 16.0311C13.1531 17.076 12.4748 17.988 11.9656 18.6389C11.7868 18.8674 11.6292 19.0634 11.5 19.2213C11.3708 19.0634 11.2132 18.8674 11.0344 18.6389C10.5252 17.988 9.84693 17.076 9.16956 16.0311C8.49134 14.9848 7.81972 13.8138 7.31903 12.6441C6.81588 11.4687 6.5 10.3281 6.5 9.33333C6.5 6.67835 8.72396 4.5 11.5 4.5C14.276 4.5 16.5 6.67835 16.5 9.33333Z" stroke="currentColor" fill="transparent"/>
	<path d="M10.2108 10.8819C10.8721 11.5431 11.9351 11.5433 12.5852 10.8932C13.2353 10.243 13.2352 9.18001 12.5739 8.51878C11.9127 7.85755 10.8497 7.85738 10.1996 8.50749C9.54945 9.1576 9.54962 10.2206 10.2108 10.8819Z" stroke="currentColor" fill="transparent"/>
</svg>
