<svg width="24" height="24" viewBox="0 0 24 24" fill="none" xmlns="http://www.w3.org/2000/svg">
<path fill-rule="evenodd" clip-rule="evenodd" d="M11 20C15.9706 20 20 15.9706 20 11C20 6.02944 15.9706 2 11 2C6.02944 2 2 6.02944 2 11C2 15.9706 6.02944 20 11 20ZM18.4158 17.7087C20.0218 15.9346 21 13.5815 21 11C21 5.47715 16.5228 1 11 1C5.47715 1 1 5.47715 1 11C1 16.5228 5.47715 21 11 21C13.5815 21 15.9346 20.0218 17.7087 18.4158L21.6464 22.3536L22 22.7071L22.7071 22L22.3536 21.6464L18.4158 17.7087Z" fill="#ADB0B4"/>
</svg>
