<svg width="24" height="24" viewBox="0 0 24 24" fill="none" xmlns="http://www.w3.org/2000/svg">
<g clip-path="url(#clip0)">
<path fill-rule="evenodd" clip-rule="evenodd" d="M1.00118 11H4.40873C4.5952 6.20044 7.43658 2.88923 9.52441 1.1506C4.84078 1.9688 1.22918 6.02646 1.00118 11ZM10.768 1.44327C8.82751 2.87932 5.61712 6.11563 5.40963 11L10.768 11L10.768 1.44327ZM10.768 12L5.41832 12C5.57643 14.175 6.75717 18.396 10.768 21.5179V12ZM9.60952 21.8639C5.73041 18.558 4.56518 14.2862 4.41617 12H1.00118C1.23056 17.0036 4.88459 21.0803 9.60952 21.8639ZM12.963 21.8578C17.6703 21.0593 21.3061 16.9908 21.5349 12L18.119 12C18.0279 13.3211 17.5869 15.14 16.6805 17.0014C15.8628 18.6806 14.6568 20.4143 12.963 21.8578ZM17.1163 12H11.768V21.5369C13.6285 20.1202 14.9266 18.3191 15.7814 16.5636C16.6244 14.8324 17.0249 13.1692 17.1163 12ZM17.1265 11H11.768L11.768 1.44327C13.7086 2.87932 16.919 6.11563 17.1265 11ZM18.1274 11L21.5349 11C21.3069 6.02646 17.6953 1.9688 13.0117 1.1506C15.0995 2.88923 17.9409 6.20044 18.1274 11ZM-0.0102539 11.5C-0.0102539 5.15837 5.02966 0 11.268 0C17.5064 0 22.5463 5.15837 22.5463 11.5C22.5463 17.8416 17.5064 23 11.268 23C5.02966 23 -0.0102539 17.8416 -0.0102539 11.5Z" fill="#151515"/>
</g>
<defs>
<clipPath id="clip0">
<rect width="23.5163" height="24" fill="white"/>
</clipPath>
</defs>
</svg>
