<svg width="24" height="24" viewBox="0 0 24 24" fill="none" xmlns="http://www.w3.org/2000/svg">
<g clip-path="url(#clip0)">
<path fill-rule="evenodd" clip-rule="evenodd" d="M0.5 4H0L0 4.5L0 20.5L0 21H0.5L23.5 21H24V20.5L24 4.5V4L23.5 4L0.5 4ZM1 20L1 5L23 5L23 20L1 20ZM9.71934 9.428L6.70734 15.848L9.77934 15.848V17H5.23134V16.16L8.23134 9.752H5.41134V8.6H9.71934V9.428ZM10.9181 17L10.9181 8.6H12.1301L12.1301 17H10.9181ZM13.8009 8.6H16.0209C17.6649 8.6 18.6009 9.596 18.6009 11.312C18.6009 13.076 17.6649 14.048 16.0209 14.048H15.0129V17H13.8009L13.8009 8.6ZM15.0129 12.896H16.0089C16.9209 12.896 17.3649 12.392 17.3649 11.312C17.3649 10.28 16.9209 9.752 16.0089 9.752H15.0129L15.0129 12.896Z" fill="#151515"/>
</g>
<defs>
<clipPath id="clip0">
<rect width="24" height="24" fill="white"/>
</clipPath>
</defs>
</svg>
