<svg width="24" height="24" viewBox="0 0 24 24" fill="none" xmlns="http://www.w3.org/2000/svg">
<g clip-path="url(#clip0)">
<path fill-rule="evenodd" clip-rule="evenodd" d="M11.2684 23C17.5218 23 22.5567 17.832 22.5567 11.5C22.5567 5.16802 17.5218 0 11.2684 0C5.01486 0 -0.0200195 5.16802 -0.0200195 11.5C-0.0200195 17.832 5.01486 23 11.2684 23ZM21.5567 11.5C21.5567 17.299 16.9505 22 11.2684 22C5.58624 22 0.97998 17.299 0.97998 11.5C0.97998 5.70101 5.58624 1 11.2684 1C16.9505 1 21.5567 5.70101 21.5567 11.5ZM15.5449 9.84993L15.8948 9.4928L15.1805 8.79292L14.8306 9.15006L10.2885 13.7856L7.70611 11.1501L7.35617 10.7929L6.6419 11.4928L6.99184 11.8499L9.93137 14.8499L10.2885 15.2144L10.6456 14.8499L15.5449 9.84993Z" fill="#151515"/>
</g>
<defs>
<clipPath id="clip0">
<rect width="23.5163" height="24" fill="white"/>
</clipPath>
</defs>
</svg>
