<svg width="24" height="24" viewBox="0 0 24 24" fill="none" xmlns="http://www.w3.org/2000/svg">
<path fill-rule="evenodd" clip-rule="evenodd" d="M4.39043 22.3123L20.3904 2.31232L19.6096 1.68762L16.8135 5.18265C15.4155 4.47395 13.8046 3.99997 12 3.99997C8.31262 3.99997 5.44267 5.9752 3.52145 7.89642C2.55736 8.8605 1.81959 9.82303 1.32262 10.5444C1.07384 10.9056 0.884604 11.2074 0.7568 11.4205C0.69288 11.527 0.644269 11.6114 0.611205 11.67C0.594672 11.6993 0.582021 11.7221 0.573282 11.738L0.563109 11.7567L0.560229 11.7621L0.559342 11.7637L0.559037 11.7643C0.558922 11.7645 0.558824 11.7647 1 12L0.558824 11.7647C0.480392 11.9117 0.480392 12.0882 0.558824 12.2353L1 12C0.558824 12.2353 0.558893 12.2354 0.55897 12.2355L0.559165 12.2359L0.559704 12.2369L0.561369 12.24L0.567052 12.2505L0.587795 12.2882C0.605781 12.3206 0.632072 12.3672 0.666576 12.4267C0.735573 12.5456 0.837488 12.716 0.971585 12.9263C1.23962 13.3468 1.63714 13.9285 2.15838 14.5789C3.11805 15.7764 4.51055 17.2241 6.30181 18.3223L3.60957 21.6876L4.39043 22.3123ZM6.93181 17.5348C5.2216 16.5108 3.87551 15.1225 2.93873 13.9536C2.44379 13.3359 2.06703 12.7844 1.81483 12.3888C1.71547 12.2329 1.63559 12.1015 1.57556 12L1.61429 11.935C1.73258 11.7378 1.91054 11.4537 2.14613 11.1117C2.61791 10.4269 3.31764 9.51444 4.22855 8.60352C6.05733 6.77474 8.68738 4.99997 12 4.99997C13.5446 4.99997 14.939 5.38503 16.1742 5.98189L13.9124 8.80908C13.2419 8.30153 12.4058 7.99997 11.5 7.99997C9.29086 7.99997 7.5 9.79083 7.5 12C7.5 13.2248 8.0507 14.3206 8.91658 15.0539L6.93181 17.5348ZM9.54154 14.2726C8.90313 13.722 8.5 12.9079 8.5 12C8.5 10.3431 9.84315 8.99997 11.5 8.99997C12.17 8.99997 12.7881 9.21913 13.2874 9.5903L9.54154 14.2726ZM21.4994 10.6153C20.7939 9.66146 19.7542 8.448 18.4117 7.39312L19.0295 6.60682C20.4632 7.73334 21.5632 9.01987 22.3034 10.0207C22.6742 10.5221 22.9566 10.9543 23.1471 11.2627C23.2424 11.417 23.3149 11.5404 23.364 11.6263C23.3886 11.6693 23.4073 11.7028 23.4202 11.7262L23.4351 11.7534L23.4392 11.7611L23.4405 11.7634L23.4409 11.7642L23.4411 11.7645C23.4411 11.7646 23.4412 11.7647 23 12C23.4412 12.2353 23.4411 12.2354 23.441 12.2357L23.4407 12.2362L23.4398 12.2379L23.4369 12.2432L23.4267 12.2619C23.418 12.2778 23.4053 12.3007 23.3888 12.33C23.3557 12.3885 23.3071 12.4729 23.2432 12.5795C23.1154 12.7925 22.9262 13.0944 22.6774 13.4555C22.1804 14.1769 21.4426 15.1394 20.4786 16.1035C18.5573 18.0247 15.6874 20 12 20C10.873 20 9.82028 19.815 8.84719 19.5027L9.15281 18.5505C10.0344 18.8335 10.984 19 12 19C15.3126 19 17.9427 17.2252 19.7714 15.3964C20.6824 14.4855 21.3821 13.573 21.8539 12.8882C22.0895 12.5462 22.2674 12.2621 22.3857 12.065L22.4244 12C22.3887 11.9396 22.346 11.8687 22.2964 11.7883C22.1183 11.5 21.8514 11.0913 21.4994 10.6153ZM23 12L23.4412 11.7647C23.5196 11.9117 23.5196 12.0882 23.4412 12.2353L23 12Z" fill="#ADB0B4"/>
</svg>
