<svg width="24" height="24" viewBox="0 0 24 24" fill="none" xmlns="http://www.w3.org/2000/svg">
<path fill-rule="evenodd" clip-rule="evenodd" d="M2.14613 12.8882C1.91054 12.5462 1.73258 12.2622 1.61429 12.065L1.57556 12L1.61429 11.935C1.73258 11.7378 1.91054 11.4538 2.14613 11.1118C2.61791 10.4269 3.31764 9.51447 4.22855 8.60355C6.05733 6.77477 8.68738 5 12 5C15.3126 5 17.9427 6.77477 19.7714 8.60355C20.6824 9.51447 21.3821 10.4269 21.8539 11.1118C22.0895 11.4538 22.2674 11.7378 22.3857 11.935L22.4244 12L22.3857 12.065C22.2674 12.2622 22.0895 12.5462 21.8539 12.8882C21.3821 13.5731 20.6824 14.4855 19.7714 15.3964C17.9427 17.2252 15.3126 19 12 19C8.68738 19 6.05733 17.2252 4.22855 15.3964C3.31764 14.4855 2.61791 13.5731 2.14613 12.8882ZM23.441 11.7643C23.4411 11.7645 23.4412 11.7647 23 12C23.4412 12.2353 23.4411 12.2355 23.441 12.2357L23.4407 12.2363L23.4398 12.2379L23.4369 12.2433L23.4267 12.2619C23.418 12.2779 23.4053 12.3007 23.3888 12.33C23.3557 12.3886 23.3071 12.473 23.2432 12.5795C23.1154 12.7925 22.9262 13.0944 22.6774 13.4555C22.1804 14.1769 21.4426 15.1395 20.4786 16.1036C18.5573 18.0248 15.6874 20 12 20C8.31262 20 5.44267 18.0248 3.52145 16.1036C2.55736 15.1395 1.81959 14.1769 1.32262 13.4555C1.07384 13.0944 0.884604 12.7925 0.7568 12.5795C0.69288 12.473 0.644269 12.3886 0.611205 12.33C0.594672 12.3007 0.582021 12.2779 0.573282 12.2619L0.563109 12.2433L0.560229 12.2379L0.559342 12.2363L0.559037 12.2357C0.558922 12.2355 0.558824 12.2353 1 12C0.558824 11.7647 0.558922 11.7645 0.559037 11.7643L0.559342 11.7637L0.560229 11.7621L0.563109 11.7567L0.573282 11.7381C0.582021 11.7221 0.594672 11.6993 0.611205 11.67C0.644269 11.6114 0.69288 11.527 0.7568 11.4205C0.884604 11.2075 1.07384 10.9056 1.32262 10.5445C1.81959 9.82306 2.55736 8.86053 3.52145 7.89645C5.44267 5.97523 8.31262 4 12 4C15.6874 4 18.5573 5.97523 20.4786 7.89645C21.4426 8.86053 22.1804 9.82306 22.6774 10.5445C22.9262 10.9056 23.1154 11.2075 23.2432 11.4205C23.3071 11.527 23.3557 11.6114 23.3888 11.67C23.4053 11.6993 23.418 11.7221 23.4267 11.7381L23.4369 11.7567L23.4398 11.7621L23.4407 11.7637L23.441 11.7643ZM23 12L23.4412 11.7647C23.5196 11.9118 23.5196 12.0882 23.4412 12.2353L23 12ZM0.558824 11.7647L1 12L0.558824 12.2353C0.480392 12.0882 0.480392 11.9118 0.558824 11.7647ZM12 16C14.2091 16 16 14.2091 16 12C16 9.79086 14.2091 8 12 8C9.79086 8 8 9.79086 8 12C8 14.2091 9.79086 16 12 16ZM15 12C15 13.6569 13.6569 15 12 15C10.3431 15 9 13.6569 9 12C9 10.3431 10.3431 9 12 9C13.6569 9 15 10.3431 15 12Z" fill="#151515"/>
</svg>
