<svg width="24" height="24" viewBox="0 0 24 24" fill="none" xmlns="http://www.w3.org/2000/svg">
<path fill-rule="evenodd" clip-rule="evenodd" d="M0.5 4H0V4.5V20.5V21H0.5H23.5H24V20.5V4.5V4H23.5H0.5ZM1 20V5H23V20H1ZM4.31461 8.6H6.53461C8.17861 8.6 9.11461 9.596 9.11461 11.312C9.11461 13.076 8.17861 14.048 6.53461 14.048H5.52661V17H4.31461V8.6ZM5.52661 12.896H6.52261C7.43461 12.896 7.87861 12.392 7.87861 11.312C7.87861 10.28 7.43461 9.752 6.52261 9.752H5.52661V12.896ZM12.2505 17H10.1505V8.6H12.2385C13.8705 8.6 14.8305 9.56 14.8305 11.216V14.36C14.8305 16.028 13.8705 17 12.2505 17ZM11.3625 9.752V15.848H12.2505C13.1145 15.848 13.6065 15.332 13.6065 14.336V11.24C13.6065 10.256 13.1265 9.752 12.2505 9.752H11.3625ZM20.2277 8.6V9.74H17.4797V12.248H20.0117V13.352H17.4797V17H16.2677V8.6H20.2277Z" fill="#151515"/>
</svg>
