<svg width="24" height="24" viewBox="0 0 24 24" fill="none" xmlns="http://www.w3.org/2000/svg">
<path fill-rule="evenodd" clip-rule="evenodd" d="M6.8809 5.29645C5.47879 6.29162 4.29312 7.57664 3.5811 8.8516L6.30569 8.50402L6.80167 8.44075L6.92822 9.43271L6.43224 9.49598L2.51286 9.99598L1.94958 10.0678V9.5L1.94958 5.5L1.94958 5H2.94958L2.94958 5.5L2.94958 7.95668C3.75449 6.67413 4.94511 5.44413 6.30211 4.48098C7.94572 3.31439 9.88946 2.5 11.7581 2.5C15.4272 2.5 18.5266 4.65992 20.0464 7.7811L20.2653 8.23064L19.3662 8.66844L19.1473 8.2189C17.7811 5.41321 15.014 3.5 11.7581 3.5C10.1643 3.5 8.42022 4.20389 6.8809 5.29645ZM4.14999 15.3316L4.36889 15.7811C5.7351 18.5868 8.50222 20.5 11.7581 20.5C14.87 20.5 17.5354 18.7523 18.9579 16.1481L16.2307 16.496L15.7347 16.5593L15.6082 15.5673L16.1041 15.504L20.0235 15.004L20.5868 14.9322V15.5L20.5868 19.5V20H19.5868V19.5L19.5868 17.0563C17.9505 19.7198 15.0891 21.5 11.7581 21.5C8.089 21.5 4.98965 19.3401 3.46982 16.2189L3.25092 15.7694L4.14999 15.3316Z" fill="#151515"/>
</svg>
