<svg width="85" height="85" viewBox="0 0 85 85" fill="none" xmlns="http://www.w3.org/2000/svg">
<circle cx="42.5" cy="42.5" r="42" stroke="#151515"/>
<circle cx="22.1111" cy="32.6464" r="5.13065" stroke="#151515"/>
<path d="M19.2969 32.6465H25.866" stroke="#151515"/>
<circle cx="42.7556" cy="38.2771" r="5.13065" stroke="#151515"/>
<path d="M39.9414 38.2769H46.5105" stroke="#151515"/>
<circle cx="62.4627" cy="32.6464" r="5.13065" stroke="#151515"/>
<path d="M59.6484 32.6466H66.2175" stroke="#151515"/>
<path d="M45.5719 71.1226H39.9413V52.3538L36.1875 48.6L40.4105 51.4153L39.0028 47.6616L41.8181 51.4153L42.7566 46.7231L43.695 51.4153L46.5104 47.6616L45.1027 51.4153L49.3257 48.6L45.5719 52.3538V71.1226Z" fill="#151515" stroke="#151515"/>
<circle cx="42.7556" cy="19.5083" r="5.13065" stroke="#151515"/>
<path d="M39.9414 19.5083H46.5105" stroke="#151515"/>
<circle cx="57.7713" cy="54.2306" r="5.13065" stroke="#151515"/>
<path d="M54.957 54.2307H61.5261" stroke="#151515"/>
<circle cx="25.865" cy="54.2306" r="5.13065" stroke="#151515"/>
<path d="M23.0508 54.2307H29.6199" stroke="#151515"/>
</svg>
