<svg width="80" height="80" viewBox="0 0 80 80" fill="none" xmlns="http://www.w3.org/2000/svg">
<circle cx="40" cy="40" r="39.5" stroke="white"/>
<path d="M42.3196 51.5942L45.2182 42.3188L53.3341 37.1014L55.0733 36.5217L61.4501 39.4203V42.3188H59.1312L55.0733 39.4203L48.1167 43.4783L45.7979 50.4348L50.4356 60.2898L46.9573 61.4493L42.3196 51.5942Z" fill="white"/>
<path d="M19.7109 47.5362L45.2182 42.3188M45.2182 42.3188L42.3196 51.5942M45.2182 42.3188L53.3341 37.1014M42.3196 51.5942L19.7109 56.8116M42.3196 51.5942L46.9573 61.4493M46.9573 61.4493L30.1457 65.5072M46.9573 61.4493L50.4356 60.2898L45.7979 50.4348L48.1167 43.4783L55.0733 39.4203L59.1312 42.3188H61.4501V39.4203L55.0733 36.5217L53.3341 37.1014M53.3341 37.1014L23.1892 43.4783" stroke="white"/>
<path d="M42.5966 30.7247L42.0993 30.6731L42.5966 30.7247ZM45.8054 26.6667L46.3054 26.6607L45.8054 26.6667ZM41.7474 22.6087L41.2475 22.6115L41.7474 22.6087ZM41.7467 13.9131L38.8551 18.9103L44.6286 18.9159L41.7467 13.9131ZM46.3851 35.9421C46.6635 35.5267 46.6635 35.5268 46.6636 35.5268C46.6636 35.5268 46.6636 35.5268 46.6636 35.5268C46.6636 35.5268 46.6636 35.5268 46.6635 35.5267C46.6632 35.5266 46.6627 35.5262 46.662 35.5257C46.6606 35.5248 46.6582 35.5232 46.6549 35.5209C46.6483 35.5164 46.638 35.5094 46.6243 35.4999C46.5969 35.4809 46.5558 35.4522 46.5032 35.4144C46.3978 35.3388 46.2462 35.2271 46.0645 35.0851C45.7002 34.8004 45.2195 34.3972 44.749 33.9211C44.2764 33.4429 43.8274 32.9044 43.5141 32.3504C43.1991 31.7934 43.0437 31.2606 43.094 30.7763L42.0993 30.6731C42.0196 31.441 42.2727 32.1866 42.6437 32.8426C43.0163 33.5017 43.5307 34.111 44.0377 34.624C44.5469 35.1392 45.0621 35.5708 45.4487 35.873C45.6425 36.0245 45.8052 36.1443 45.9202 36.2269C45.9777 36.2681 46.0234 36.3001 46.0551 36.3221C46.071 36.3331 46.0835 36.3416 46.0921 36.3475C46.0965 36.3505 46.0999 36.3528 46.1024 36.3545C46.1036 36.3553 46.1046 36.356 46.1053 36.3564C46.1057 36.3567 46.106 36.3569 46.1062 36.3571C46.1064 36.3572 46.1065 36.3572 46.1066 36.3573C46.1067 36.3574 46.1068 36.3574 46.3851 35.9421ZM43.094 30.7763C43.1695 30.0483 43.7327 29.6618 44.5625 29.1179C45.3014 28.6335 46.3213 27.9817 46.3054 26.6607L45.3055 26.6728C45.3139 27.3719 44.8337 27.7444 44.0143 28.2815C43.2858 28.7591 42.2323 29.3915 42.0993 30.6731L43.094 30.7763ZM46.3054 26.6607C46.2964 25.9189 45.9445 25.3955 45.4776 25.0149C45.036 24.6548 44.4649 24.4017 43.976 24.1818C43.4554 23.9476 43.0174 23.7466 42.6997 23.4864C42.4078 23.2472 42.2495 22.9844 42.2474 22.606L41.2475 22.6115C41.2515 23.3536 41.6001 23.8783 42.066 24.2599C42.5061 24.6205 43.0768 24.8738 43.5657 25.0938C44.0864 25.328 44.5258 25.5292 44.8457 25.7899C45.1403 26.0301 45.3009 26.2941 45.3055 26.6728L46.3054 26.6607ZM42.2474 22.606C42.2427 21.7316 42.2418 20.0602 42.2423 18.4136L41.2423 18.4133C41.2418 20.0592 41.2427 21.7336 41.2475 22.6115L42.2474 22.606Z" fill="white"/>
<path d="M34.4794 30.7247L33.9821 30.6731L34.4794 30.7247ZM37.6882 26.6667L38.1882 26.6607L37.6882 26.6667ZM33.6303 22.6087L33.1303 22.6115L33.6303 22.6087ZM33.6295 13.9131L30.7379 18.9103L36.5114 18.9159L33.6295 13.9131ZM38.2679 35.9421C38.5463 35.5267 38.5463 35.5268 38.5464 35.5268C38.5464 35.5268 38.5465 35.5268 38.5465 35.5268C38.5465 35.5268 38.5464 35.5268 38.5463 35.5267C38.546 35.5266 38.5456 35.5262 38.5448 35.5257C38.5434 35.5248 38.541 35.5232 38.5377 35.5209C38.5311 35.5164 38.5208 35.5094 38.5071 35.4999C38.4797 35.4809 38.4387 35.4522 38.386 35.4144C38.2806 35.3388 38.129 35.2271 37.9473 35.0851C37.583 34.8004 37.1023 34.3972 36.6318 33.9211C36.1592 33.4429 35.7102 32.9044 35.3969 32.3504C35.0819 31.7934 34.9265 31.2606 34.9768 30.7763L33.9821 30.6731C33.9024 31.441 34.1555 32.1866 34.5265 32.8426C34.8992 33.5017 35.4135 34.111 35.9206 34.624C36.4297 35.1392 36.9449 35.5708 37.3315 35.873C37.5253 36.0245 37.688 36.1443 37.803 36.2269C37.8605 36.2681 37.9062 36.3001 37.938 36.3221C37.9539 36.3331 37.9663 36.3416 37.975 36.3475C37.9793 36.3505 37.9827 36.3528 37.9852 36.3545C37.9864 36.3553 37.9874 36.356 37.9881 36.3564C37.9885 36.3567 37.9888 36.3569 37.989 36.3571C37.9892 36.3572 37.9893 36.3572 37.9894 36.3573C37.9895 36.3574 37.9896 36.3574 38.2679 35.9421ZM34.9768 30.7763C35.0523 30.0483 35.6155 29.6618 36.4453 29.1179C37.1843 28.6335 38.2041 27.9817 38.1882 26.6607L37.1883 26.6728C37.1967 27.3719 36.7165 27.7444 35.8971 28.2815C35.1686 28.7591 34.1151 29.3915 33.9821 30.6731L34.9768 30.7763ZM38.1882 26.6607C38.1792 25.9189 37.8273 25.3955 37.3604 25.0149C36.9188 24.6548 36.3477 24.4017 35.8588 24.1818C35.3382 23.9476 34.9002 23.7466 34.5825 23.4864C34.2906 23.2472 34.1323 22.9844 34.1302 22.606L33.1303 22.6115C33.1343 23.3536 33.4829 23.8783 33.9488 24.2599C34.389 24.6205 34.9596 24.8738 35.4485 25.0938C35.9693 25.328 36.4087 25.5292 36.7285 25.7899C37.0231 26.0301 37.1837 26.2941 37.1883 26.6728L38.1882 26.6607ZM34.1302 22.606C34.1255 21.7316 34.1246 20.0602 34.1251 18.4136L33.1251 18.4133C33.1246 20.0592 33.1255 21.7336 33.1303 22.6115L34.1302 22.606Z" fill="white"/>
</svg>
