<svg width="85" height="85" viewBox="0 0 85 85" fill="none" xmlns="http://www.w3.org/2000/svg">
<circle cx="42.5" cy="42.5" r="42" stroke="#151515"/>
<path d="M39.5473 41.9096H31.2834L53.1237 22.4304L39.5473 41.9096H48.9918L28.332 61.979L39.5473 41.9096Z" fill="#151515"/>
<path d="M19.2404 29.4304H22.3512V28.6762H20.5188V28.6463L21.1559 28.022C22.0529 27.2039 22.2937 26.7948 22.2937 26.2983C22.2937 25.5419 21.6758 25.0071 20.7404 25.0071C19.8242 25.0071 19.1957 25.5547 19.1978 26.4112H20.0735C20.0714 25.9936 20.3356 25.7379 20.734 25.7379C21.1175 25.7379 21.4031 25.9766 21.4031 26.3601C21.4031 26.7074 21.19 26.946 20.7937 27.3274L19.2404 28.7656V29.4304ZM24.6135 29.4901C25.585 29.4901 26.2456 28.8573 26.2434 27.9752C26.2456 27.1399 25.6618 26.5391 24.8755 26.5391C24.492 26.5391 24.1618 26.6989 24.0083 26.9141H23.9828L24.0957 25.821H26.0027V25.0668H23.335L23.1284 27.3679L23.9487 27.5149C24.0829 27.3338 24.3429 27.2209 24.6007 27.2209C25.0396 27.223 25.3549 27.5405 25.3549 27.9986C25.3549 28.4524 25.046 28.7656 24.6135 28.7656C24.247 28.7656 23.9508 28.5355 23.9295 28.1968H23.0346C23.0517 28.951 23.71 29.4901 24.6135 29.4901ZM28.5978 29.5263C29.6951 29.5263 30.3578 28.6911 30.3599 27.2529C30.362 25.8253 29.6909 25.0071 28.5978 25.0071C27.5027 25.0071 26.8379 25.8232 26.8358 27.2529C26.8315 28.6868 27.4984 29.5242 28.5978 29.5263ZM28.5978 28.7614C28.0971 28.7614 27.7733 28.2585 27.7754 27.2529C27.7775 26.2621 28.0993 25.7635 28.5978 25.7635C29.0943 25.7635 29.4181 26.2621 29.4181 27.2529C29.4203 28.2585 29.0964 28.7614 28.5978 28.7614ZM33.2203 25.0668H32.1955L33.7019 29.4304H34.8908L36.3951 25.0668H35.3723L34.3155 28.3821H34.275L33.2203 25.0668Z" fill="#151515"/>
<path d="M47.1117 53.4002H46.2446L45.1643 54.0841V54.9023L46.1636 54.2759H46.1892V57.7638H47.1117V53.4002ZM49.8236 57.8235C50.7952 57.8277 51.4578 57.1906 51.4557 56.3021C51.4578 55.484 50.8868 54.8938 50.1133 54.8938C49.6339 54.8938 49.2099 55.1239 49.0139 55.5095H48.9841C48.9883 54.6594 49.2866 54.131 49.8555 54.131C50.1901 54.131 50.4308 54.3142 50.5011 54.6189H51.4109C51.3236 53.9009 50.727 53.3405 49.8555 53.3405C48.7774 53.3405 48.0849 54.2141 48.0807 55.68C48.0785 57.278 48.9266 57.8192 49.8236 57.8235ZM49.8193 57.099C49.3932 57.099 49.0778 56.756 49.0778 56.3298C49.08 55.9058 49.4017 55.5607 49.8257 55.5607C50.2518 55.5607 50.5629 55.8952 50.5608 56.3277C50.5629 56.7645 50.2455 57.099 49.8193 57.099ZM53.8207 57.8597C54.918 57.8597 55.5807 57.0244 55.5828 55.5862C55.5849 54.1587 54.9138 53.3405 53.8207 53.3405C52.7256 53.3405 52.0608 54.1565 52.0587 55.5862C52.0544 57.0202 52.7213 57.8575 53.8207 57.8597ZM53.8207 57.0948C53.32 57.0948 52.9962 56.5919 52.9983 55.5862C53.0004 54.5955 53.3222 54.0969 53.8207 54.0969C54.3172 54.0969 54.641 54.5955 54.641 55.5862C54.6432 56.5919 54.3193 57.0948 53.8207 57.0948ZM58.4432 53.4002H57.4184L58.9248 57.7638H60.1137L61.618 53.4002H60.5952L59.5384 56.7155H59.4979L58.4432 53.4002Z" fill="#151515"/>
</svg>
