<svg width="24" height="24" viewBox="0 0 24 24" fill="none" xmlns="http://www.w3.org/2000/svg">
<path fill-rule="evenodd" clip-rule="evenodd" d="M11.2682 0.93866L11.4954 1.05463L16.3947 3.55463L21.2939 6.05463L21.5666 6.1938V6.5L21.5666 16.5V16.7927L21.3114 16.936L11.5129 22.436L11.2682 22.5734L11.0234 22.436L1.22499 16.936L0.969727 16.7927V16.5L0.969727 6.5V6.1938L1.24246 6.05463L11.0409 1.05463L11.2682 0.93866ZM1.96973 7.35403L1.96973 16.2073L10.7682 21.146V12.2927L6.12421 9.686L1.96973 7.35403ZM11.7682 12.2927V21.146L20.5666 16.2073L20.5666 7.35404L11.7682 12.2927ZM20.0077 6.52099L16.1731 4.56421L7.40862 9.26019L11.2682 11.4266L20.0077 6.52099ZM6.37454 8.67975L15.0885 4.0108L11.2682 2.06133L2.52863 6.52099L6.37454 8.67975Z" fill="#151515"/>
</svg>
