<svg width="24" height="24" viewBox="0 0 24 24" fill="none" xmlns="http://www.w3.org/2000/svg">
<g clip-path="url(#clip0)">
<path fill-rule="evenodd" clip-rule="evenodd" d="M0.969727 0L1.46973 0L13.2279 0L22.0465 0L22.5465 0V0.5V6.5V7H21.5465V6.5V1L13.2279 1L1.96973 1L1.96973 19H11.2682H11.7682V20H11.2682H1.46973H0.969727L0.969727 19.5L0.969727 0.5L0.969727 0ZM13.7279 6H13.2279L5.38911 6H4.88911L4.88911 5H5.38911L13.2279 5H13.7279V6ZM9.30849 10H9.80849V9H9.30849L5.38911 9H4.88911L4.88911 10H5.38911L9.30849 10ZM19.5868 17.5927C18.9903 17.8546 18.3315 18 17.6372 18C16.9428 18 16.2841 17.8546 15.6876 17.5927V21.9463L17.321 20.6127L17.6372 20.3545L17.9534 20.6127L19.5868 21.9463V17.5927ZM20.5868 17.0025C21.786 16.0871 22.5565 14.629 22.5565 13C22.5565 10.2579 20.3732 8 17.6372 8C14.9012 8 12.7178 10.2579 12.7178 13C12.7178 14.629 13.4883 16.0871 14.6876 17.0025L14.6876 23V24.0537L15.5038 23.3873L17.6372 21.6455L19.7706 23.3873L20.5868 24.0537V23V17.0025ZM17.6372 17C19.8018 17 21.5565 15.2091 21.5565 13C21.5565 10.7909 19.8018 9 17.6372 9C15.4726 9 13.7178 10.7909 13.7178 13C13.7178 15.2091 15.4726 17 17.6372 17Z" fill="#151515"/>
</g>
<defs>
<clipPath id="clip0">
<rect width="23.5163" height="24" fill="white"/>
</clipPath>
</defs>
</svg>
