<svg width="85" height="85" viewBox="0 0 85 85" fill="none" xmlns="http://www.w3.org/2000/svg">
<circle cx="42.5" cy="42.5" r="42" stroke="black"/>
<path d="M43.4119 46.3682L47.3539 33.7537L58.3916 26.658L60.7568 25.8696L69.4293 29.8117V33.7537H66.2757L60.7568 29.8117L51.2959 35.3305L48.1423 44.7914L54.4496 58.1943L49.7191 59.7711L43.4119 46.3682Z" fill="#151515"/>
<path d="M12.6641 40.8493L47.3539 33.7537M47.3539 33.7537L43.4119 46.3682M47.3539 33.7537L58.3916 26.658M43.4119 46.3682L12.6641 53.4638M43.4119 46.3682L49.7191 59.7711M49.7191 59.7711L26.8554 65.2899M49.7191 59.7711L54.4496 58.1943L48.1423 44.7914L51.2959 35.3305L60.7568 29.8117L66.2757 33.7537H69.4293V29.8117L60.7568 25.8696L58.3916 26.658M58.3916 26.658L17.3945 35.3305" stroke="#151515"/>
<path d="M18.4786 40.6522L19.1754 44.8829L23.4061 45.5798L19.1754 46.2766L18.4786 50.5073L17.7817 46.2766L13.551 45.5798L17.7817 44.8829L18.4786 40.6522Z" fill="#ADB0B4"/>
<path d="M28.3337 50.5073L29.0305 54.738L33.2612 55.4349L29.0305 56.1317L28.3337 60.3624L27.6368 56.1317L23.4061 55.4349L27.6368 54.738L28.3337 50.5073Z" fill="#ADB0B4"/>
<path d="M33.8783 32.0291L35.0107 38.9039L41.8856 40.0363L35.0107 41.1687L33.8783 48.0435L32.7459 41.1687L25.8711 40.0363L32.7459 38.9039L33.8783 32.0291Z" fill="#ADB0B4"/>
</svg>
