<svg width="80" height="80" viewBox="0 0 80 80" fill="none" xmlns="http://www.w3.org/2000/svg">
<circle r="39.5" transform="matrix(-1 0 0 1 40 40)" stroke="white"/>
<path d="M22.1042 43.77C25.9234 47.0773 34.6042 47.1034 34.6042 47.1034C34.6042 47.1034 35.1396 38.7626 32.1042 35.02C28.2745 30.2982 17.1042 30.8534 17.1042 30.8534C17.1042 30.8534 18.0152 40.2292 22.1042 43.77Z" fill="white"/>
<path d="M31.5431 37.1504C31.7755 41.8292 35.8074 48.362 35.8074 48.362C35.8074 48.362 33.3483 33.6887 39.5105 28.9161L37.3392 43.27L41.3805 39.3043C41.3805 39.3043 36.2258 48.5497 39.1534 49.8639C39.1534 49.8639 47.0316 46.8664 47.4405 36.9986C47.8494 27.1308 40.2652 19.9573 40.2652 19.9573C40.2652 19.9573 31.1697 29.631 31.5431 37.1504Z" fill="white" stroke="white" stroke-width="0.6"/>
<path d="M42.1404 57.0831L42.4346 57.1419L41.8458 57.1396L42.1404 57.0831ZM42.1404 57.0831C41.8458 57.1396 41.8458 57.1395 41.8458 57.1394L41.8457 57.139L41.8454 57.1375L41.8443 57.1319L41.8403 57.1102L41.8249 57.0265C41.8115 56.9532 41.7923 56.8452 41.7685 56.7061C41.7209 56.4277 41.6552 56.0244 41.5822 55.5227C41.4363 54.5196 41.2611 53.1222 41.1443 51.5443C40.9115 48.4003 40.9066 44.4961 41.8551 41.5738C43.381 36.8723 48.0384 32.6572 52.2525 29.638C54.3683 28.1221 56.3893 26.896 57.8811 26.0488C58.6272 25.6251 59.2415 25.296 59.6697 25.0725C59.8839 24.9607 60.0515 24.8754 60.1659 24.8178C60.2231 24.789 60.267 24.7672 60.2967 24.7525L60.3306 24.7358L60.3393 24.7315L60.3417 24.7304L60.3423 24.7301C60.3425 24.73 60.3426 24.73 60.4738 24.9998M42.1404 57.0831L42.4346 57.1418L42.4347 57.1413L42.4352 57.139L42.4372 57.1294L42.4452 57.0902C42.4525 57.0554 42.4634 57.0034 42.4781 56.9351C42.5076 56.7987 42.5522 56.5975 42.6124 56.3401C42.7329 55.8252 42.9158 55.0854 43.1652 54.1882C43.6642 52.3931 44.4285 49.9711 45.4898 47.4603C46.5517 44.9479 47.9067 42.3569 49.5837 40.2174C51.0797 38.3086 52.8189 36.7756 54.8192 35.9662L46.0458 51.519L45.6046 52.3012L46.4274 51.9413L51.3596 49.7834C51.3034 49.8353 51.246 49.8884 51.1875 49.9428C50.2523 50.8126 49.0335 52.0051 47.9046 53.2915C46.7794 54.5737 45.7276 55.967 45.1427 57.2376C44.5671 58.4882 44.388 59.7549 45.2616 60.6285L45.3495 60.7164H45.4738V60.4164C45.4738 60.7164 45.474 60.7164 45.4742 60.7164H45.4749L45.477 60.7164L45.4842 60.7164L45.5102 60.716C45.5326 60.7156 45.5651 60.7149 45.6073 60.7134C45.6915 60.7104 45.8143 60.7045 45.9713 60.6928C46.2854 60.6694 46.7372 60.6228 47.294 60.5301C48.407 60.3445 49.9421 59.9739 51.6358 59.2329C55.028 57.7489 59.0485 54.7817 61.5829 48.8679C64.1142 42.9611 63.9 36.9581 63.0603 32.4449C62.6402 30.1867 62.0626 28.2962 61.5897 26.9693C61.3532 26.3058 61.1427 25.7827 60.9909 25.4247C60.915 25.2456 60.8537 25.1078 60.8112 25.0142C60.7899 24.9674 60.7734 24.9317 60.762 24.9074L60.7489 24.8797L60.7454 24.8723L60.7444 24.8703L60.7441 24.8697C60.744 24.8695 60.7439 24.8693 60.4738 24.9998M60.4738 24.9998L60.3426 24.73L60.6131 24.5984L60.7439 24.8693L60.4738 24.9998Z" fill="white" stroke="white" stroke-width="0.6"/>
</svg>
