<svg width="80" height="80" viewBox="0 0 80 80" fill="none" xmlns="http://www.w3.org/2000/svg">
<circle cx="40" cy="40" r="39.5813" stroke="#151515" stroke-width="0.837439"/>
<path d="M9.92087 48.8335H13.7839V42.3564H16.6031L20.0647 48.8335H24.3292L20.4483 41.7319C22.5271 40.8398 23.6779 39.0287 23.6779 36.5306C23.6779 32.8996 21.278 30.5621 17.1295 30.5621H9.92087V48.8335ZM13.7839 39.2517V33.7203H16.389C18.6194 33.7203 19.6989 34.7106 19.6989 36.5306C19.6989 38.3417 18.6194 39.2517 16.4069 39.2517H13.7839ZM34.8745 38.19H26.5418V41.2055H34.8745V38.19ZM44.7083 49.0833C48.8123 49.0833 51.7475 46.8261 51.7385 43.7036C51.7475 41.4286 50.3022 39.8049 47.6168 39.4658V39.3231C49.6598 38.9573 51.0694 37.512 51.0605 35.46C51.0694 32.5784 48.5446 30.3123 44.7619 30.3123C41.0148 30.3123 38.1956 32.507 38.1421 35.6652H41.8445C41.8891 34.2735 43.1649 33.3724 44.744 33.3724C46.3053 33.3724 47.3491 34.3181 47.3402 35.692C47.3491 37.1284 46.1269 38.1008 44.3693 38.1008H42.6653V40.9379H44.3693C46.4391 40.9379 47.7328 41.9728 47.7238 43.4449C47.7328 44.8991 46.4837 45.8983 44.7173 45.8983C43.0132 45.8983 41.7375 45.0061 41.6661 43.6679H37.7763C37.8387 46.8618 40.6936 49.0833 44.7083 49.0833ZM54.5154 48.8335H67.5409V45.6753H59.8683V45.5504L62.5359 42.9363C66.2919 39.5104 67.3 37.7975 67.3 35.7188C67.3 32.5516 64.7128 30.3123 60.7962 30.3123C56.9599 30.3123 54.328 32.6051 54.337 36.1916H58.0037C57.9948 34.443 59.1011 33.3724 60.7694 33.3724C62.3753 33.3724 63.5708 34.3716 63.5708 35.9775C63.5708 37.4317 62.6786 38.4309 61.0192 40.0279L54.5154 46.05V48.8335Z" fill="#151515"/>
</svg>
