<svg width="133" height="39" viewBox="0 0 133 39" fill="none" xmlns="http://www.w3.org/2000/svg">
<path d="M128.074 39H4.92593C2.16741 39 0 36.855 0 34.125V4.875C0 2.145 2.16741 0 4.92593 0H128.074C130.833 0 133 2.145 133 4.875V34.125C133 36.7575 130.833 39 128.074 39Z" fill="black"/>
<path d="M128.074 0.78C130.34 0.78 132.212 2.6325 132.212 4.875V34.125C132.212 36.3675 130.34 38.22 128.074 38.22H4.92593C2.66 38.22 0.788148 36.3675 0.788148 34.125V4.875C0.788148 2.6325 2.66 0.78 4.92593 0.78H128.074ZM128.074 0H4.92593C2.16741 0 0 2.145 0 4.875V34.125C0 36.855 2.16741 39 4.92593 39H128.074C130.833 39 133 36.855 133 34.125V4.875C133 2.2425 130.833 0 128.074 0Z" fill="#A6A6A6"/>
<path d="M67.0922 21.2554C64.7277 21.2554 62.8559 23.0104 62.8559 25.4479C62.8559 27.7879 64.7277 29.6404 67.0922 29.6404C69.4566 29.6404 71.3285 27.8854 71.3285 25.4479C71.3285 22.9129 69.4566 21.2554 67.0922 21.2554ZM67.0922 27.8854C65.8114 27.8854 64.7277 26.8129 64.7277 25.3504C64.7277 23.8879 65.8114 22.8154 67.0922 22.8154C68.3729 22.8154 69.4566 23.7904 69.4566 25.3504C69.4566 26.8129 68.3729 27.8854 67.0922 27.8854ZM57.93 21.2554C55.5655 21.2554 53.6937 23.0104 53.6937 25.4479C53.6937 27.7879 55.5655 29.6404 57.93 29.6404C60.2944 29.6404 62.1663 27.8854 62.1663 25.4479C62.1663 22.9129 60.2944 21.2554 57.93 21.2554ZM57.93 27.8854C56.6492 27.8854 55.5655 26.8129 55.5655 25.3504C55.5655 23.8879 56.6492 22.8154 57.93 22.8154C59.2107 22.8154 60.2944 23.7904 60.2944 25.3504C60.2944 26.8129 59.2107 27.8854 57.93 27.8854ZM46.9944 22.5229V24.2779H51.2307C51.1322 25.2529 50.7381 26.0329 50.2455 26.5204C49.6544 27.1054 48.6692 27.7879 46.9944 27.7879C44.3344 27.7879 42.364 25.7404 42.364 23.1079C42.364 20.4754 44.4329 18.4279 46.9944 18.4279C48.3737 18.4279 49.4574 19.0129 50.2455 19.6954L51.5263 18.4279C50.4426 17.4529 49.0633 16.6729 47.0929 16.6729C43.5463 16.6729 40.4922 19.5979 40.4922 23.1079C40.4922 26.6179 43.5463 29.5429 47.0929 29.5429C49.0633 29.5429 50.4426 28.9579 51.6248 27.6904C52.807 26.5204 53.2011 24.8629 53.2011 23.5954C53.2011 23.2054 53.2011 22.8154 53.1026 22.5229H46.9944ZM91.7218 23.8879C91.3277 22.9129 90.3426 21.2554 88.1751 21.2554C86.0077 21.2554 84.2344 22.9129 84.2344 25.4479C84.2344 27.7879 86.0077 29.6404 88.3722 29.6404C90.244 29.6404 91.4263 28.4704 91.8203 27.7879L90.4411 26.8129C89.9485 27.4954 89.3574 27.9829 88.3722 27.9829C87.387 27.9829 86.7959 27.5929 86.3033 26.7154L91.9189 24.3754L91.7218 23.8879ZM86.0077 25.2529C86.0077 23.6929 87.2885 22.8154 88.1751 22.8154C88.8648 22.8154 89.5544 23.2054 89.7514 23.6929L86.0077 25.2529ZM81.3774 29.2504H83.2492V17.0629H81.3774V29.2504ZM78.4218 22.1329C77.9292 21.6454 77.1411 21.1579 76.1559 21.1579C74.087 21.1579 72.1166 23.0104 72.1166 25.3504C72.1166 27.6904 73.9885 29.4454 76.1559 29.4454C77.1411 29.4454 77.9292 28.9579 78.3233 28.4704H78.4218V29.0554C78.4218 30.6154 77.5352 31.4929 76.1559 31.4929C75.0722 31.4929 74.284 30.7129 74.087 30.0304L72.5107 30.7129C73.0033 31.7854 74.1855 33.1504 76.2544 33.1504C78.4218 33.1504 80.1951 31.8829 80.1951 28.8604V21.4504H78.4218V22.1329ZM76.2544 27.8854C74.9737 27.8854 73.89 26.8129 73.89 25.3504C73.89 23.8879 74.9737 22.8154 76.2544 22.8154C77.5351 22.8154 78.5203 23.8879 78.5203 25.3504C78.5203 26.8129 77.5351 27.8854 76.2544 27.8854ZM100.293 17.0629H95.8596V29.2504H97.7314V24.6679H100.293C102.362 24.6679 104.332 23.2054 104.332 20.8654C104.332 18.5254 102.362 17.0629 100.293 17.0629ZM100.391 22.9129H97.7314V18.7204H100.391C101.771 18.7204 102.559 19.8904 102.559 20.7679C102.46 21.8404 101.672 22.9129 100.391 22.9129ZM111.721 21.1579C110.342 21.1579 108.963 21.7429 108.47 23.0104L110.145 23.6929C110.539 23.0104 111.13 22.8154 111.82 22.8154C112.805 22.8154 113.691 23.4004 113.79 24.3754V24.4729C113.494 24.2779 112.706 23.9854 111.918 23.9854C110.145 23.9854 108.371 24.9604 108.371 26.7154C108.371 28.3729 109.849 29.4454 111.426 29.4454C112.706 29.4454 113.297 28.8604 113.79 28.2754H113.888V29.2504H115.662V24.5704C115.465 22.4254 113.79 21.1579 111.721 21.1579ZM111.524 27.8854C110.933 27.8854 110.046 27.5929 110.046 26.8129C110.046 25.8379 111.13 25.5454 112.017 25.5454C112.805 25.5454 113.199 25.7404 113.691 25.9354C113.494 27.1054 112.509 27.8854 111.524 27.8854ZM121.868 21.4504L119.8 26.7154H119.701L117.534 21.4504H115.563L118.814 28.8604L116.943 32.9554H118.814L123.839 21.4504H121.868ZM105.317 29.2504H107.189V17.0629H105.317V29.2504Z" fill="white"/>
<path d="M10.2465 7.3125C9.95094 7.605 9.75391 8.0925 9.75391 8.6775V30.225C9.75391 30.81 9.95094 31.2975 10.2465 31.59L10.345 31.6875L22.5613 19.5975V19.5V19.4025L10.2465 7.3125Z" fill="url(#paint0_linear)"/>
<path d="M26.6018 23.6928L22.5625 19.6953V19.5003V19.4028L26.6018 15.4053L26.7003 15.5028L31.5277 18.2328C32.9069 19.0128 32.9069 20.2803 31.5277 21.0603L26.6018 23.6928Z" fill="url(#paint1_linear)"/>
<path d="M26.6987 23.595L22.5609 19.5L10.2461 31.6875C10.7387 32.175 11.4283 32.175 12.315 31.785L26.6987 23.595Z" fill="url(#paint2_linear)"/>
<path d="M26.6987 15.4052L12.315 7.31269C11.4283 6.82519 10.7387 6.92269 10.2461 7.41019L22.5609 19.5002L26.6987 15.4052Z" fill="url(#paint3_linear)"/>
<path opacity="0.2" d="M26.6002 23.4971L12.315 31.4921C11.5268 31.9796 10.8372 31.8821 10.3446 31.4921L10.2461 31.5896L10.3446 31.6871C10.8372 32.0771 11.5268 32.1746 12.315 31.6871L26.6002 23.4971Z" fill="black"/>
<path opacity="0.12" d="M10.2456 31.492C9.95008 31.1995 9.85156 30.712 9.85156 30.127V30.2245C9.85156 30.8095 10.0486 31.297 10.3442 31.5895V31.492H10.2456Z" fill="black"/>
<path opacity="0.12" d="M31.5275 20.7675L26.6016 23.4975L26.7001 23.595L31.5275 20.865C32.2171 20.475 32.5127 19.9875 32.5127 19.5C32.5127 19.9875 32.1186 20.3775 31.5275 20.7675Z" fill="black"/>
<path opacity="0.25" d="M12.3145 7.40987L31.5256 18.2324C32.1167 18.6224 32.5108 19.0124 32.5108 19.4999C32.5108 19.0124 32.2153 18.5249 31.5256 18.1349L12.3145 7.31237C10.9353 6.53237 9.85156 7.21487 9.85156 8.77487V8.87237C9.85156 7.31237 10.9353 6.62987 12.3145 7.40987Z" fill="white"/>
<path d="M41.4748 13.9427H40.7852V11.9927H41.3763C41.8689 11.6027 42.1644 10.8227 42.1644 9.7502V6.8252H46.1052V11.9927H46.7948V13.9427H46.1052V12.6752H41.5733V13.9427H41.4748ZM42.854 9.7502C42.854 10.6277 42.657 11.4077 42.2629 11.9927H45.2185V7.60519H42.7555V9.7502H42.854Z" fill="white" stroke="white" stroke-width="0.2" stroke-miterlimit="10"/>
<path d="M52.6082 11.895C52.0171 12.48 51.3275 12.7725 50.4408 12.7725C49.5541 12.7725 48.8645 12.48 48.2734 11.895C47.6823 11.31 47.3867 10.6275 47.3867 9.75004C47.3867 8.87254 47.6823 8.19004 48.2734 7.60504C48.8645 7.02004 49.5541 6.72754 50.4408 6.72754C51.3275 6.72754 52.0171 7.02004 52.6082 7.60504C53.1993 8.19004 53.4949 8.87254 53.4949 9.75004C53.4949 10.6275 53.1993 11.31 52.6082 11.895ZM48.8645 11.4075C49.2586 11.7975 49.8497 12.09 50.4408 12.09C51.0319 12.09 51.623 11.895 52.0171 11.4075C52.4112 11.0175 52.7067 10.4325 52.7067 9.75004C52.7067 9.06754 52.5097 8.48254 52.0171 8.09254C51.623 7.70254 51.0319 7.41004 50.4408 7.41004C49.8497 7.41004 49.2586 7.60504 48.8645 8.09254C48.4704 8.48254 48.1749 9.06754 48.1749 9.75004C48.1749 10.4325 48.3719 11.0175 48.8645 11.4075Z" fill="white" stroke="white" stroke-width="0.2" stroke-miterlimit="10"/>
<path d="M57.3353 12.7725C56.4487 12.7725 55.759 12.48 55.1679 11.895C54.5768 11.31 54.2812 10.6275 54.2812 9.75004C54.2812 8.87254 54.5768 8.19004 55.1679 7.60504C55.759 7.02004 56.4487 6.72754 57.3353 6.72754C58.222 6.72754 58.9116 7.02004 59.5027 7.70254L59.0101 8.19004C58.6161 7.70254 58.025 7.41004 57.3353 7.41004C56.6457 7.41004 56.1531 7.60504 55.6605 8.09254C55.1679 8.48254 54.9709 9.06754 54.9709 9.75004C54.9709 10.4325 55.1679 11.0175 55.6605 11.4075C56.0546 11.7975 56.6457 12.09 57.3353 12.09C58.025 12.09 58.6161 11.7975 59.1087 11.2125L59.6012 11.7C59.3057 11.9925 59.0101 12.285 58.6161 12.48C58.222 12.675 57.8279 12.7725 57.3353 12.7725Z" fill="white" stroke="white" stroke-width="0.2" stroke-miterlimit="10"/>
<path d="M62.7559 12.6752H61.9678V7.5077H60.293V6.8252H64.3322V7.5077H62.6574V12.6752H62.7559Z" fill="white" stroke="white" stroke-width="0.2" stroke-miterlimit="10"/>
<path d="M69.5531 6.8252L67.2872 11.7977C66.9916 12.4802 66.499 12.8702 65.9079 12.8702C65.7109 12.8702 65.5139 12.8702 65.3168 12.7727L65.5138 12.0902C65.6124 12.1877 65.8094 12.1877 65.9079 12.1877C66.105 12.1877 66.2035 12.1877 66.302 12.0902C66.4005 11.9927 66.499 11.8952 66.5976 11.7002L66.7946 11.2127L64.8242 6.9227H65.7109L67.1887 10.2377L68.5679 6.9227H69.5531V6.8252Z" fill="white" stroke="white" stroke-width="0.2" stroke-miterlimit="10"/>
<path d="M70.4375 12.6752V6.8252H74.6738V12.6752H73.8856V7.5077H71.1271V12.6752H70.4375Z" fill="white" stroke="white" stroke-width="0.2" stroke-miterlimit="10"/>
<path d="M76.0547 12.6752V6.8252H76.8428V9.3602H79.7984V6.8252H80.5865V12.6752H79.7984V10.0427H76.8428V12.6752H76.0547Z" fill="white" stroke="white" stroke-width="0.2" stroke-miterlimit="10"/>
<path d="M86.7918 11.895C86.2007 12.48 85.5111 12.7725 84.6244 12.7725C83.7377 12.7725 83.0481 12.48 82.457 11.895C81.8659 11.31 81.5703 10.6275 81.5703 9.75004C81.5703 8.87254 81.8659 8.19004 82.457 7.60504C83.0481 7.02004 83.7377 6.72754 84.6244 6.72754C85.5111 6.72754 86.2007 7.02004 86.7918 7.60504C87.3829 8.19004 87.6785 8.87254 87.6785 9.75004C87.5799 10.6275 87.2844 11.31 86.7918 11.895ZM82.9496 11.4075C83.3436 11.7975 83.9348 12.09 84.5259 12.09C85.117 12.09 85.7081 11.895 86.1022 11.4075C86.4962 11.0175 86.7918 10.4325 86.7918 9.75004C86.7918 9.06754 86.5948 8.48254 86.1022 8.09254C85.7081 7.70254 85.117 7.41004 84.5259 7.41004C83.9348 7.41004 83.3436 7.60504 82.9496 8.09254C82.5555 8.48254 82.2599 9.06754 82.2599 9.75004C82.2599 10.4325 82.5555 11.0175 82.9496 11.4075Z" fill="white" stroke="white" stroke-width="0.2" stroke-miterlimit="10"/>
<path d="M90.7344 12.6752V6.8252H92.9018C93.3944 6.8252 93.7885 7.0202 94.084 7.3127C94.3796 7.6052 94.5766 7.9952 94.5766 8.4827C94.5766 8.7752 94.4781 8.9702 94.3796 9.2627C94.2811 9.4577 94.084 9.6527 93.7885 9.7502C94.084 9.8477 94.2811 10.0427 94.4781 10.2377C94.6751 10.4327 94.7736 10.7252 94.7736 11.1152C94.7736 11.6027 94.5766 11.9927 94.281 12.2852C93.887 12.5777 93.4929 12.7727 93.0003 12.7727H90.7344V12.6752ZM91.5225 9.3602H92.9018C93.1973 9.3602 93.3944 9.2627 93.5914 9.0677C93.7885 8.8727 93.887 8.6777 93.887 8.4827C93.887 8.2877 93.7885 8.0927 93.5914 7.8977C93.3944 7.7027 93.1973 7.60519 92.9018 7.60519H91.5225V9.3602ZM91.5225 11.9927H93.0988C93.3944 11.9927 93.5914 11.8952 93.7885 11.7002C93.9855 11.5052 94.084 11.3102 94.084 11.0177C94.084 10.8227 93.9855 10.5302 93.7885 10.3352C93.5914 10.1402 93.3944 10.0427 93.0988 10.0427H91.621V11.9927H91.5225Z" fill="white" stroke="white" stroke-width="0.2" stroke-miterlimit="10"/>
<defs>
<linearGradient id="paint0_linear" x1="21.4773" y1="8.49196" x2="5.11536" y2="25.0248" gradientUnits="userSpaceOnUse">
<stop stop-color="#00A0FF"/>
<stop offset="0.00657445" stop-color="#00A1FF"/>
<stop offset="0.2601" stop-color="#00BEFF"/>
<stop offset="0.5122" stop-color="#00D2FF"/>
<stop offset="0.7604" stop-color="#00DFFF"/>
<stop offset="1" stop-color="#00E3FF"/>
</linearGradient>
<linearGradient id="paint1_linear" x1="33.3349" y1="19.5016" x2="9.49649" y2="19.5016" gradientUnits="userSpaceOnUse">
<stop stop-color="#FFE000"/>
<stop offset="0.4087" stop-color="#FFBD00"/>
<stop offset="0.7754" stop-color="#FFA500"/>
<stop offset="1" stop-color="#FF9C00"/>
</linearGradient>
<linearGradient id="paint2_linear" x1="24.4594" y1="21.7387" x2="2.27123" y2="44.1586" gradientUnits="userSpaceOnUse">
<stop stop-color="#FF3A44"/>
<stop offset="1" stop-color="#C31162"/>
</linearGradient>
<linearGradient id="paint3_linear" x1="7.18936" y1="0.171989" x2="17.0974" y2="10.1834" gradientUnits="userSpaceOnUse">
<stop stop-color="#32A071"/>
<stop offset="0.0685" stop-color="#2DA771"/>
<stop offset="0.4762" stop-color="#15CF74"/>
<stop offset="0.8009" stop-color="#06E775"/>
<stop offset="1" stop-color="#00F076"/>
</linearGradient>
</defs>
</svg>
