<svg width="211" height="31" viewBox="0 0 211 31" fill="none" xmlns="http://www.w3.org/2000/svg">
<g clip-path="url(#clip0)">
<path fill-rule="evenodd" clip-rule="evenodd" d="M43.0977 3.98535H49.1743V13.367H49.2373L56.0938 3.98535H63.4122L54.984 14.6841L64.063 26.9651H56.3187L49.2373 16.5285H49.1743V26.9651H43.0977V3.98535Z" fill="white"/>
<path fill-rule="evenodd" clip-rule="evenodd" d="M66.8403 3.98535H83.2647V8.32663H72.914V13.0674H82.3499V17.4149H72.914V22.6207H83.2647V26.9651H66.8403V3.98535Z" fill="white"/>
<path fill-rule="evenodd" clip-rule="evenodd" d="M87.3799 3.98535H95.1212L102.826 19.5871H102.892L102.793 3.98535H108.342V26.9651H100.802L92.8297 11.2572H92.7727L92.9647 26.9651H87.3799V3.98535Z" fill="white"/>
<path fill-rule="evenodd" clip-rule="evenodd" d="M116.932 8.52637H111.317V3.98535H128.624V8.52637H123.012V26.9651H116.932V8.52637Z" fill="white"/>
<path fill-rule="evenodd" clip-rule="evenodd" d="M135.873 3.98535H143.324L152.106 26.9651H145.444L143.744 22.0558H135.189L133.393 26.9651H127.223L135.873 3.98535ZM139.598 8.72611H139.532L136.593 17.7083H142.316L139.598 8.72611Z" fill="white"/>
<path fill-rule="evenodd" clip-rule="evenodd" d="M156.518 8.52637H150.9V3.98535H168.209V8.52637H162.594V26.9651H156.518V8.52637Z" fill="white"/>
<path fill-rule="evenodd" clip-rule="evenodd" d="M171.148 21.3009C172.72 22.1591 174.907 22.8177 177.417 22.8177C179.346 22.8177 181.175 22.4213 181.175 20.5768C181.175 16.2948 170.396 18.9945 170.396 10.6303C170.396 5.10303 175.752 3.58936 180.323 3.58936C182.516 3.58936 184.666 3.91706 186.202 4.4445L185.812 9.18214C184.244 8.46431 182.48 8.13349 180.746 8.13349C179.214 8.13349 176.664 8.26769 176.664 10.2682C176.664 13.9947 187.447 11.4885 187.447 19.7872C187.447 25.7451 182.48 27.3649 177.417 27.3649C175.293 27.3649 172.648 27.031 170.623 26.3725L171.148 21.3009Z" fill="white"/>
<path fill-rule="evenodd" clip-rule="evenodd" d="M211.022 18.2451C211.022 24.5245 206.969 27.3583 201.028 27.3583C195.086 27.3583 191.04 24.5245 191.04 18.2451V3.98535H197.108V17.2214C197.108 20.2487 197.93 22.8173 201.028 22.8173C204.129 22.8173 204.945 20.2487 204.945 17.2214V3.98535H211.022V18.2451Z" fill="white"/>
<path fill-rule="evenodd" clip-rule="evenodd" d="M11.3042 8.28279H19.5764V-0.0595703H11.3042V8.28279Z" fill="white"/>
<path fill-rule="evenodd" clip-rule="evenodd" d="M11.3042 30.9661H19.5764V22.6206H11.3042V30.9661Z" fill="white"/>
<path fill-rule="evenodd" clip-rule="evenodd" d="M0.0366211 19.631L7.18405 15.4302L11.3501 22.6427L4.19371 26.8436L0.0366211 19.631Z" fill="white"/>
<path fill-rule="evenodd" clip-rule="evenodd" d="M4.24239 4.02002L11.3778 8.2427L7.18775 15.4459L0.0493164 11.2139L4.24239 4.02002Z" fill="white"/>
<path fill-rule="evenodd" clip-rule="evenodd" d="M30.875 19.631L23.7246 15.4302L19.5615 22.6427L26.7119 26.8436L30.875 19.631Z" fill="white"/>
<path fill-rule="evenodd" clip-rule="evenodd" d="M26.6672 4.02002L19.5288 8.2427L23.7189 15.4459L30.8573 11.2139L26.6672 4.02002Z" fill="white"/>
</g>
<defs>
<clipPath id="clip0">
<rect width="211" height="31" fill="white"/>
</clipPath>
</defs>
</svg>
