<svg width="180" height="26" viewBox="0 0 180 26" fill="none" xmlns="http://www.w3.org/2000/svg">
<g clip-path="url(#clip0)">
<path fill-rule="evenodd" clip-rule="evenodd" d="M36.7656 3.34265H41.9495V11.2111H42.0032L47.8524 3.34265H54.0955L46.9057 12.3158L54.6508 22.616H48.0443L42.0032 13.8627H41.9495V22.616H36.7656V3.34265Z" fill="#151515"/>
<path fill-rule="evenodd" clip-rule="evenodd" d="M57.02 3.34265H71.0313V6.98372H62.2013V10.9598H70.2509V14.6061H62.2013V18.9723H71.0313V22.616H57.02V3.34265Z" fill="#151515"/>
<path fill-rule="evenodd" clip-rule="evenodd" d="M74.542 3.34265H81.1459L87.7192 16.428H87.7755L87.691 3.34265H92.4246V22.616H85.9921L79.1911 9.44164H79.1425L79.3063 22.616H74.542V3.34265Z" fill="#151515"/>
<path fill-rule="evenodd" clip-rule="evenodd" d="M99.7527 7.15125H94.9629V3.34265H109.726V7.15125H104.939V22.616H99.7527V7.15125Z" fill="#151515"/>
<path fill-rule="evenodd" clip-rule="evenodd" d="M115.91 3.34265H122.266L129.758 22.616H124.075L122.624 18.4985H115.327L113.794 22.616H108.531L115.91 3.34265ZM119.088 7.31877H119.032L116.525 14.8522H121.407L119.088 7.31877Z" fill="#151515"/>
<path fill-rule="evenodd" clip-rule="evenodd" d="M133.522 7.15125H128.729V3.34265H143.496V7.15125H138.706V22.616H133.522V7.15125Z" fill="#151515"/>
<path fill-rule="evenodd" clip-rule="evenodd" d="M146.004 17.8651C147.344 18.5849 149.21 19.1372 151.351 19.1372C152.996 19.1372 154.557 18.8048 154.557 17.2578C154.557 13.6665 145.361 15.9307 145.361 8.91554C145.361 4.27978 149.931 3.01025 153.831 3.01025C155.701 3.01025 157.536 3.2851 158.846 3.72747L158.513 7.70098C157.175 7.09893 155.67 6.82147 154.191 6.82147C152.884 6.82147 150.709 6.93402 150.709 8.6119C150.709 11.7373 159.907 9.63537 159.907 16.5955C159.907 21.5925 155.67 22.9511 151.351 22.9511C149.54 22.9511 147.283 22.671 145.556 22.1187L146.004 17.8651Z" fill="#151515"/>
<path fill-rule="evenodd" clip-rule="evenodd" d="M180.019 15.3024C180.019 20.569 176.562 22.9458 171.493 22.9458C166.424 22.9458 162.973 20.569 162.973 15.3024V3.34265H168.149V14.4439C168.149 16.9829 168.85 19.1372 171.493 19.1372C174.139 19.1372 174.835 16.9829 174.835 14.4439V3.34265H180.019V15.3024Z" fill="#151515"/>
<path fill-rule="evenodd" clip-rule="evenodd" d="M9.64355 6.94708H16.7004V-0.0497437H9.64355V6.94708Z" fill="#FF0000"/>
<path fill-rule="evenodd" clip-rule="evenodd" d="M9.64355 25.9717H16.7004V18.9723H9.64355V25.9717Z" fill="#FF0000"/>
<path fill-rule="evenodd" clip-rule="evenodd" d="M0.03125 16.4646L6.12858 12.9413L9.68259 18.9906L3.57758 22.5139L0.03125 16.4646Z" fill="#FF0000"/>
<path fill-rule="evenodd" clip-rule="evenodd" d="M3.61903 3.37146L9.70612 6.91306L6.13165 12.9545L0.0419922 9.405L3.61903 3.37146Z" fill="#FF0000"/>
<path fill-rule="evenodd" clip-rule="evenodd" d="M26.3388 16.4646L20.2389 12.9413L16.6875 18.9906L22.7874 22.5139L26.3388 16.4646Z" fill="#FF0000"/>
<path fill-rule="evenodd" clip-rule="evenodd" d="M22.7493 3.37146L16.6597 6.91306L20.2341 12.9545L26.3238 9.405L22.7493 3.37146Z" fill="#FF0000"/>
</g>
<defs>
<clipPath id="clip0">
<rect width="180" height="26" fill="white"/>
</clipPath>
</defs>
</svg>
