<svg width="122" height="40" viewBox="0 0 122 40" fill="none" xmlns="http://www.w3.org/2000/svg">
<g clip-path="url(#clip0)">
<path d="M112.285 0.00013H9.7208C9.34695 0.00013 8.97757 0.00013 8.6047 0.00213C8.29258 0.00413 7.98294 0.00994 7.66782 0.01483C6.98322 0.0227318 6.30024 0.0818063 5.6248 0.19154C4.95031 0.303663 4.29695 0.515046 3.68681 0.81854C3.07742 1.1246 2.52061 1.5223 2.03656 1.9972C1.54998 2.47077 1.14437 3.01815 0.835344 3.61829C0.525461 4.21724 0.310587 4.85907 0.198144 5.52161C0.0846314 6.18332 0.0235493 6.85265 0.0154457 7.52361C0.00598459 7.83021 0.00498546 8.13783 0 8.44447V31.5587C0.00498546 31.8692 0.00598459 32.17 0.0154457 32.4806C0.0235518 33.1516 0.0846339 33.8209 0.198144 34.4825C0.310277 35.1455 0.525163 35.7877 0.835344 36.3868C1.14423 36.985 1.5499 37.5302 2.03656 38.0011C2.51877 38.4781 3.07595 38.8761 3.68681 39.1798C4.29694 39.4841 4.95023 39.6968 5.6248 39.8106C6.30035 39.9195 6.98327 39.9786 7.66782 39.9874C7.98294 39.9942 8.29258 39.9981 8.6047 39.9981C8.97756 40.0001 9.34697 40.0001 9.7208 40.0001H112.285C112.651 40.0001 113.023 40.0001 113.39 39.9981C113.7 39.9981 114.019 39.9942 114.33 39.9874C115.013 39.9791 115.695 39.92 116.369 39.8106C117.046 39.696 117.701 39.4834 118.314 39.1798C118.925 38.8759 119.481 38.478 119.963 38.0011C120.448 37.5284 120.855 36.9836 121.168 36.3868C121.476 35.7872 121.688 35.1451 121.799 34.4825C121.913 33.8208 121.976 33.1516 121.988 32.4806C121.992 32.17 121.992 31.8692 121.992 31.5587C122 31.1954 122 30.8341 122 30.4649V9.53626C122 9.17005 122 8.80677 121.992 8.44447C121.992 8.13783 121.992 7.83021 121.988 7.52357C121.976 6.85255 121.913 6.18337 121.799 5.52157C121.688 4.85941 121.475 4.21763 121.168 3.61825C120.538 2.41533 119.54 1.43616 118.314 0.81845C117.701 0.515697 117.045 0.30437 116.369 0.19145C115.695 0.0812328 115.013 0.0221378 114.33 0.01469C114.019 0.00981 113.7 0.00395 113.39 0.002C113.023 0 112.651 0 112.285 0V0.00013Z" fill="#A6A6A6"/>
<path d="M8.61025 39.125C8.29962 39.125 7.9965 39.1211 7.68831 39.1143C7.04987 39.1061 6.41292 39.0516 5.78268 38.9512C5.19502 38.8519 4.62574 38.6673 4.0936 38.4033C3.56635 38.1415 3.08545 37.7983 2.66933 37.3867C2.24719 36.98 1.89574 36.5082 1.6289 35.9902C1.35912 35.4688 1.17242 34.9099 1.0753 34.333C0.970417 33.7131 0.913671 33.0863 0.905551 32.458C0.899087 32.2471 0.890625 31.5449 0.890625 31.5449V8.44434C0.890625 8.44434 0.899638 7.75293 0.905602 7.5498C0.913376 6.92248 0.969793 6.29665 1.07436 5.67773C1.17166 5.09925 1.35851 4.53875 1.62843 4.01563C1.89429 3.49794 2.24379 3.02586 2.66339 2.61768C3.08252 2.20562 3.56495 1.8606 4.0931 1.59521C4.62401 1.33209 5.19222 1.14873 5.7787 1.05127C6.411 0.949836 7.05016 0.894996 7.69082 0.88721L8.61075 0.875H113.385L114.316 0.8877C114.951 0.895099 115.585 0.94945 116.211 1.05029C116.803 1.14898 117.378 1.33362 117.915 1.59814C118.973 2.13299 119.834 2.97916 120.377 4.01807C120.642 4.53758 120.826 5.09351 120.922 5.66699C121.028 6.29099 121.087 6.92174 121.1 7.5542C121.102 7.8374 121.102 8.1416 121.102 8.44434C121.111 8.81934 121.111 9.17627 121.111 9.53613V30.4648C121.111 30.8281 121.111 31.1826 121.102 31.54C121.102 31.8652 121.102 32.1631 121.099 32.4697C121.087 33.0909 121.028 33.7104 120.924 34.3232C120.829 34.9043 120.643 35.4675 120.374 35.9932C120.105 36.5056 119.756 36.9733 119.338 37.3789C118.922 37.7927 118.44 38.1379 117.912 38.4014C117.376 38.6674 116.803 38.8527 116.211 38.9512C115.581 39.0522 114.944 39.1067 114.305 39.1143C114.007 39.1211 113.694 39.125 113.39 39.125L112.285 39.127L8.61025 39.125Z" fill="black"/>
<path d="M25.2541 20.3013C25.2651 19.4666 25.4911 18.6483 25.9112 17.9223C26.3313 17.1964 26.9317 16.5864 27.6567 16.1492C27.1961 15.5041 26.5886 14.9731 25.8822 14.5986C25.1759 14.224 24.3902 14.0162 23.5876 13.9916C21.8756 13.8153 20.2159 14.9964 19.3435 14.9964C18.4542 14.9964 17.1109 14.0091 15.6645 14.0383C14.7289 14.0679 13.8171 14.3348 13.018 14.8128C12.2188 15.2909 11.5595 15.9638 11.1043 16.7661C9.13254 20.1145 10.6033 25.0356 12.4921 27.7422C13.4371 29.0676 14.5415 30.548 15.9866 30.4955C17.4007 30.438 17.9289 29.611 19.6359 29.611C21.327 29.611 21.8225 30.4955 23.297 30.4621C24.8144 30.438 25.7705 29.1309 26.6823 27.793C27.3613 26.8486 27.8837 25.8049 28.2304 24.7005C27.3488 24.3347 26.5964 23.7226 26.0672 22.9403C25.5379 22.158 25.2552 21.2402 25.2541 20.3013Z" fill="white"/>
<path d="M22.4701 12.2113C23.2975 11.2371 23.7051 9.98494 23.6064 8.7207C22.3423 8.85092 21.1747 9.44348 20.3362 10.3803C19.9262 10.838 19.6122 11.3704 19.4121 11.9472C19.212 12.524 19.1298 13.1337 19.1701 13.7417C19.8024 13.7481 20.4279 13.6137 20.9995 13.3486C21.5711 13.0835 22.0739 12.6947 22.4701 12.2113Z" fill="white"/>
<path d="M43.1303 27.1397H38.3045L37.1456 30.4961H35.1016L39.6725 18.0781H41.7961L46.3671 30.4961H44.2882L43.1303 27.1397ZM38.8043 25.5908H42.6295L40.7438 20.1436H40.691L38.8043 25.5908Z" fill="white"/>
<path d="M56.2378 25.9695C56.2378 28.7829 54.7025 30.5905 52.3857 30.5905C51.7988 30.6207 51.2152 30.4881 50.7015 30.2079C50.1879 29.9278 49.7651 29.5114 49.4815 29.0065H49.4376V33.4909H47.543V21.4421H49.3769V22.948H49.4118C49.7084 22.4455 50.1384 22.0313 50.6559 21.7495C51.1735 21.4676 51.7592 21.3287 52.3509 21.3474C54.6935 21.3474 56.2378 23.1638 56.2378 25.9695ZM54.2904 25.9695C54.2904 24.1365 53.3246 22.9314 51.8511 22.9314C50.4034 22.9314 49.4297 24.1618 49.4297 25.9695C49.4297 27.7937 50.4034 29.0154 51.8511 29.0154C53.3246 29.0154 54.2904 27.8191 54.2904 25.9695Z" fill="white"/>
<path d="M66.3979 25.9694C66.3979 28.7829 64.8627 30.5905 62.5459 30.5905C61.959 30.6206 61.3753 30.488 60.8617 30.2079C60.3481 29.9278 59.9252 29.5114 59.6416 29.0065H59.5978V33.4909H57.7031V21.4421H59.5371V22.948H59.5719C59.8685 22.4455 60.2985 22.0313 60.816 21.7495C61.3336 21.4676 61.9193 21.3287 62.511 21.3474C64.8537 21.3474 66.3979 23.1638 66.3979 25.9694ZM64.4505 25.9694C64.4505 24.1364 63.4847 22.9314 62.0112 22.9314C60.5636 22.9314 59.5899 24.1618 59.5899 25.9694C59.5899 27.7937 60.5636 29.0153 62.0112 29.0153C63.4848 29.0153 64.4505 27.8191 64.4505 25.9694H64.4505Z" fill="white"/>
<path d="M73.1114 27.0362C73.2518 28.2676 74.4714 29.0762 76.1381 29.0762C77.7351 29.0762 78.884 28.2676 78.884 27.1572C78.884 26.1934 78.1911 25.6162 76.5503 25.2207L74.9095 24.833C72.5847 24.2822 71.5054 23.2158 71.5054 21.4854C71.5054 19.3428 73.4091 17.8711 76.1122 17.8711C78.7874 17.8711 80.6214 19.3428 80.6831 21.4854H78.7705C78.656 20.2461 77.6116 19.4981 76.0853 19.4981C74.559 19.4981 73.5146 20.2549 73.5146 21.3565C73.5146 22.2344 74.1817 22.751 75.8135 23.1465L77.2083 23.4824C79.8059 24.0849 80.8852 25.1084 80.8852 26.9248C80.8852 29.248 78.9985 30.7031 75.9977 30.7031C73.19 30.7031 71.2943 29.2822 71.1719 27.0361L73.1114 27.0362Z" fill="white"/>
<path d="M84.9762 19.2998V21.4424H86.7315V22.9141H84.9762V27.9053C84.9762 28.6807 85.3277 29.042 86.0993 29.042C86.3077 29.0384 86.5157 29.0241 86.7225 28.999V30.4619C86.3756 30.5255 86.023 30.5543 85.6702 30.5478C83.8014 30.5478 83.0726 29.8593 83.0726 28.1035V22.9141H81.7305V21.4424H83.0725V19.2998H84.9762Z" fill="white"/>
<path d="M87.7461 25.9697C87.7461 23.1211 89.4566 21.3311 92.1239 21.3311C94.8001 21.3311 96.5026 23.1211 96.5026 25.9697C96.5026 28.8262 94.8091 30.6084 92.1239 30.6084C89.4396 30.6084 87.7461 28.8262 87.7461 25.9697ZM94.5721 25.9697C94.5721 24.0156 93.6591 22.8623 92.1239 22.8623C90.5886 22.8623 89.6766 24.0244 89.6766 25.9697C89.6766 27.9316 90.5886 29.0762 92.1239 29.0762C93.6591 29.0762 94.5721 27.9316 94.5721 25.9697H94.5721Z" fill="white"/>
<path d="M98.0664 21.443H99.8735V22.984H99.9173C100.04 22.5027 100.327 22.0774 100.731 21.7795C101.136 21.4816 101.632 21.3293 102.138 21.3483C102.356 21.3475 102.574 21.3708 102.787 21.4176V23.1559C102.511 23.0733 102.224 23.0353 101.935 23.0436C101.66 23.0326 101.386 23.0802 101.131 23.1831C100.876 23.286 100.647 23.4417 100.46 23.6396C100.272 23.8375 100.13 24.0729 100.044 24.3295C99.9583 24.5862 99.9299 24.8581 99.9611 25.1266V30.4967H98.0664L98.0664 21.443Z" fill="white"/>
<path d="M111.522 27.8369C111.267 29.4805 109.635 30.6084 107.547 30.6084C104.862 30.6084 103.195 28.8437 103.195 26.0127C103.195 23.1729 104.871 21.3311 107.468 21.3311C110.021 21.3311 111.627 23.0518 111.627 25.7969V26.4336H105.108V26.5459C105.078 26.8791 105.12 27.2148 105.233 27.5306C105.345 27.8464 105.525 28.1352 105.759 28.3778C105.994 28.6203 106.279 28.8111 106.595 28.9374C106.911 29.0637 107.25 29.1226 107.591 29.1103C108.039 29.1515 108.488 29.0498 108.872 28.8203C109.256 28.5909 109.554 28.246 109.723 27.8369L111.522 27.8369ZM105.117 25.1348H109.732C109.749 24.8352 109.702 24.5354 109.596 24.2541C109.489 23.9729 109.324 23.7164 109.111 23.5006C108.899 23.2849 108.643 23.1145 108.36 23.0003C108.077 22.8861 107.773 22.8305 107.468 22.8369C107.159 22.8351 106.853 22.8933 106.568 23.008C106.282 23.1227 106.023 23.2918 105.804 23.5054C105.586 23.7191 105.412 23.973 105.294 24.2527C105.176 24.5323 105.116 24.8321 105.117 25.1348V25.1348Z" fill="white"/>
<path d="M37.4558 11.2534H38.2693C38.4093 11.2705 38.5514 11.259 38.6867 11.2195C38.8219 11.1801 38.9474 11.1136 39.0551 11.0242C39.1629 10.9349 39.2506 10.8246 39.3128 10.7003C39.3749 10.576 39.4101 10.4405 39.4162 10.3022C39.4162 9.75193 38.9941 9.39646 38.2782 9.39646C38.1348 9.3768 37.9887 9.38553 37.8488 9.42214C37.7088 9.45875 37.5777 9.52249 37.4633 9.60961C37.3489 9.69672 37.2534 9.80544 37.1825 9.92935C37.1116 10.0533 37.0668 10.1898 37.0506 10.331H36.1575C36.1729 10.0747 36.2419 9.82428 36.3602 9.59527C36.4785 9.36626 36.6437 9.16359 36.8453 8.99989C37.047 8.83618 37.2808 8.71494 37.5323 8.64372C37.7838 8.5725 38.0475 8.55282 38.3071 8.58591C39.5048 8.58591 40.3481 9.24362 40.3481 10.1904C40.351 10.5076 40.2428 10.8161 40.0416 11.0645C39.8405 11.3129 39.5586 11.486 39.243 11.5551V11.6255C39.6171 11.6417 39.9695 11.8027 40.2231 12.073C40.4766 12.3434 40.6107 12.7013 40.596 13.0683C40.5684 13.3322 40.4872 13.588 40.3574 13.8208C40.2276 14.0535 40.0518 14.2585 39.8402 14.4237C39.6286 14.5889 39.3855 14.7111 39.1251 14.7829C38.8648 14.8548 38.5924 14.875 38.324 14.8423C38.0551 14.8782 37.7815 14.8607 37.5196 14.7908C37.2576 14.7208 37.0128 14.5998 36.7995 14.4351C36.5863 14.2703 36.4091 14.0651 36.2784 13.8317C36.1478 13.5983 36.0664 13.3415 36.0391 13.0766H36.9461C37.0008 13.6474 37.5355 14.0156 38.324 14.0156C39.1125 14.0156 39.6273 13.6021 39.6273 13.0191C39.6273 12.4278 39.1424 12.0635 38.2951 12.0635H37.4558V11.2534Z" fill="white"/>
<path d="M41.625 13.4248C41.625 12.6142 42.2413 12.147 43.3325 12.0806L44.576 12.0102V11.6216C44.576 11.146 44.2564 10.8774 43.6362 10.8774C43.1304 10.8774 42.7809 11.0596 42.6794 11.3779H41.8022C41.8948 10.6045 42.6376 10.1084 43.679 10.1084C44.8299 10.1084 45.4791 10.6704 45.4791 11.6216V14.6982H44.6059V14.0654H44.5342C44.3887 14.2924 44.1844 14.4775 43.9421 14.6017C43.6999 14.7259 43.4284 14.7848 43.1553 14.7724C42.9626 14.7921 42.7678 14.7719 42.5835 14.7132C42.3992 14.6545 42.2295 14.5586 42.0853 14.4316C41.9411 14.3047 41.8257 14.1495 41.7464 13.9761C41.6671 13.8026 41.6258 13.6149 41.625 13.4248ZM44.576 13.04V12.6636L43.4549 12.7339C42.8227 12.7754 42.536 12.9863 42.536 13.3833C42.536 13.7886 42.8944 14.0244 43.3873 14.0244C43.5317 14.0387 43.6775 14.0244 43.8162 13.9824C43.9549 13.9403 44.0835 13.8713 44.1944 13.7794C44.3053 13.6876 44.3963 13.5748 44.4618 13.4478C44.5274 13.3207 44.5662 13.1821 44.576 13.04Z" fill="white"/>
<path d="M47.8865 10.9424V14.6973H46.9805V10.1943H50.0032V10.9423L47.8865 10.9424Z" fill="white"/>
<path d="M55.4942 12.4448C55.4942 13.8754 54.7564 14.7724 53.5975 14.7724C53.313 14.7915 53.0289 14.7304 52.7786 14.5964C52.5283 14.4624 52.3223 14.2611 52.1847 14.0161H52.113V16.1953H51.207V10.1953H52.0792V10.9394H52.1469C52.2869 10.6859 52.4957 10.4752 52.7501 10.3307C53.0045 10.1862 53.2947 10.1135 53.5886 10.1206C54.7564 10.1206 55.4942 11.0136 55.4942 12.4448ZM54.5623 12.4448C54.5623 11.4936 54.1033 10.9189 53.3357 10.9189C52.5731 10.9189 52.0961 11.5058 52.0961 12.4487C52.0961 13.3872 52.573 13.9746 53.3317 13.9746C54.1033 13.9746 54.5623 13.3999 54.5623 12.4448Z" fill="white"/>
<path d="M56.6984 16.3101V15.5449C56.7965 15.5571 56.8953 15.5627 56.9941 15.5615C57.1871 15.5756 57.3786 15.5192 57.5319 15.4032C57.6851 15.2872 57.7893 15.1198 57.8245 14.9331L57.8922 14.7139L56.2305 10.1943H57.2171L58.3681 13.771H58.4398L59.5867 10.1943H60.5475L58.8361 14.8833C58.4438 15.979 58.0097 16.3306 57.0738 16.3306C56.9981 16.3306 56.7831 16.3223 56.6984 16.3101Z" fill="white"/>
<path d="M61.2539 13.4195H62.1559C62.2446 13.8165 62.6239 14.0235 63.1546 14.0235C63.7579 14.0235 64.1283 13.7628 64.1283 13.3575C64.1283 12.9235 63.7957 12.7164 63.1546 12.7164H62.4676V12.026H63.1426C63.6902 12.026 63.969 11.8195 63.969 11.443C63.969 11.1124 63.6992 10.86 63.1426 10.86C62.6358 10.86 62.2655 11.0709 62.2067 11.4264H61.3336C61.3988 11.0179 61.6249 10.6509 61.9633 10.4043C62.3016 10.1577 62.725 10.0511 63.1426 10.1076C64.2338 10.1076 64.8581 10.5914 64.8581 11.3522C64.8632 11.564 64.794 11.7712 64.662 11.939C64.5301 12.1068 64.3434 12.2251 64.1333 12.2741V12.3444C64.3835 12.376 64.6132 12.4967 64.7787 12.6835C64.9443 12.8702 65.0341 13.1101 65.0313 13.3576C65.0313 14.2136 64.2886 14.7799 63.1546 14.7799C62.152 14.7799 61.3375 14.3292 61.2539 13.4195Z" fill="white"/>
<path d="M66.3359 14.6973V10.1943H67.234V13.2915H67.3057L69.4214 10.1943H70.3194V14.6973H69.4214V11.5835H69.3537L67.234 14.6973L66.3359 14.6973Z" fill="white"/>
<path d="M75.2671 10.9423H73.8214V14.6972H72.9144V10.9423H71.4688V10.1943H75.2671V10.9423Z" fill="white"/>
<path d="M80.15 13.4815C80.0266 13.893 79.7597 14.2489 79.3959 14.4871C79.0321 14.7252 78.5946 14.8304 78.1598 14.7843C77.8573 14.7921 77.5568 14.7353 77.2789 14.6177C77.0011 14.5002 76.7527 14.3248 76.5509 14.1036C76.3492 13.8825 76.1989 13.621 76.1105 13.3371C76.0221 13.0533 75.9977 12.754 76.0391 12.46C75.9988 12.1652 76.0236 11.8652 76.1118 11.5805C76.2 11.2959 76.3495 11.0331 76.5502 10.81C76.7509 10.587 76.9981 10.4088 77.2751 10.2876C77.5522 10.1664 77.8525 10.105 78.1558 10.1075C79.4332 10.1075 80.2048 10.9635 80.2048 12.3775V12.6876H76.9631V12.7374C76.9487 12.9027 76.9698 13.0691 77.0249 13.2259C77.08 13.3827 77.1679 13.5265 77.2831 13.648C77.3982 13.7695 77.538 13.866 77.6935 13.9313C77.8489 13.9967 78.0166 14.0294 78.1857 14.0274C78.4023 14.0528 78.6216 14.0145 78.8159 13.9173C79.0102 13.82 79.1707 13.6684 79.2769 13.4815L80.15 13.4815ZM76.963 12.0304H79.2808C79.2923 11.8793 79.2714 11.7276 79.2195 11.5849C79.1676 11.4422 79.0859 11.3118 78.9796 11.202C78.8733 11.0921 78.7447 11.0053 78.6021 10.9471C78.4596 10.8888 78.3062 10.8605 78.1518 10.8639C77.9951 10.8618 77.8395 10.8905 77.6943 10.9484C77.549 11.0063 77.4171 11.0921 77.3063 11.2009C77.1955 11.3096 77.108 11.4391 77.0491 11.5815C76.9901 11.724 76.9609 11.8766 76.9631 12.0304H76.963Z" fill="white"/>
<path d="M83.9883 10.1943H86.0582C86.9562 10.1943 87.4829 10.6406 87.4829 11.3393C87.4843 11.561 87.408 11.7765 87.2669 11.9496C87.1257 12.1228 86.9282 12.2431 86.7073 12.2905V12.3608C86.9754 12.3774 87.2268 12.4944 87.4095 12.6876C87.5922 12.8808 87.6923 13.1354 87.689 13.3989C87.689 14.1845 87.0867 14.6972 86.0791 14.6972H83.9883V10.1943ZM84.8863 10.8765V12.0425H85.7844C86.332 12.0425 86.5938 11.8359 86.5938 11.4551C86.5938 11.104 86.3659 10.8765 85.885 10.8765L84.8863 10.8765ZM84.8863 12.6958V14.0151H85.9607C86.4963 14.0151 86.7831 13.7832 86.7831 13.3574C86.7831 12.9068 86.4585 12.6958 85.8471 12.6958L84.8863 12.6958Z" fill="white"/>
</g>
<defs>
<clipPath id="clip0">
<rect width="122" height="40" fill="white"/>
</clipPath>
</defs>
</svg>
