<svg width="64" height="64" viewBox="0 0 64 64" fill="none" xmlns="http://www.w3.org/2000/svg">
<path d="M50.9388 0H13.0612C5.84773 0 0 5.84773 0 13.0612V50.9388C0 58.1525 5.84773 64 13.0612 64H50.9388C58.1525 64 64 58.1525 64 50.9388V13.0612C64 5.84773 58.1525 0 50.9388 0Z" fill="url(#paint0_linear)"/>
<path d="M12.803 30.1769C12.9875 30.4045 13.2545 30.5501 13.5458 30.5819C13.8372 30.6137 14.1293 30.5291 14.3586 30.3467L15.3839 29.5225V46.7359C15.3849 47.2682 15.5966 47.7785 15.9728 48.1552C16.349 48.5319 16.859 48.7443 17.3914 48.746H45.9419C46.4746 48.7446 46.9851 48.5324 47.3618 48.1557C47.7384 47.7791 47.9507 47.2685 47.9521 46.7359V29.5578L48.946 30.3571C49.1431 30.513 49.3869 30.5981 49.6382 30.5987C49.8047 30.5989 49.9692 30.561 50.1188 30.4879C50.2684 30.4147 50.3994 30.3084 50.5016 30.1769C50.6845 29.9473 50.7694 29.6547 50.7376 29.3628C50.7058 29.0709 50.5599 28.8035 50.3318 28.6187L32.8572 14.5687L32.4562 14.3689C32.2059 14.2589 31.9355 14.2021 31.6621 14.2021C31.3886 14.2021 31.1183 14.2589 30.8679 14.3689L30.4474 14.5635L12.9741 28.6147C12.7464 28.7993 12.6008 29.0663 12.5691 29.3576C12.5373 29.6489 12.6218 29.941 12.8043 30.1703" fill="white"/>
<path d="M38.6722 40.3397C39.2313 40.1153 39.7352 39.7726 40.1495 39.3353C40.5564 38.8993 40.8737 38.3876 41.0834 37.8293C41.3149 37.2477 41.4306 36.6266 41.4242 36.0008C41.4359 35.3681 41.3199 34.7395 41.0834 34.1525C40.8732 33.6004 40.5558 33.0953 40.1495 32.6662C39.7317 32.2307 39.2289 31.8857 38.6722 31.6527C38.0624 31.4097 37.4113 31.2868 36.7549 31.2908H34.0538V40.7511H36.7549C37.4145 40.7384 38.0655 40.5987 38.6722 40.3397ZM36.7549 28.4396C37.7962 28.4336 38.8289 28.6279 39.7968 29.0117C40.7145 29.3917 41.5528 29.9407 42.268 30.63C42.9736 31.3161 43.5365 32.1351 43.9242 33.0397C44.3303 33.9738 44.5325 34.9837 44.5171 36.002C44.5274 37.02 44.3255 38.0288 43.9242 38.9643C43.5233 39.862 42.962 40.6791 42.268 41.3754C41.5617 42.0682 40.7206 42.6083 39.7968 42.9624C38.8346 43.3677 37.7989 43.5697 36.7549 43.5553H30.9609V28.4396H36.7549Z" fill="#231F20"/>
<path d="M23.4414 34.6972C23.0027 34.6968 22.5777 34.5442 22.2388 34.2656C21.9 33.9869 21.6683 33.5994 21.5831 33.1691C21.4978 32.7388 21.5644 32.2922 21.7715 31.9054C21.9786 31.5187 22.3135 31.2157 22.7188 31.0481C23.1243 30.8805 23.5753 30.8586 23.995 30.9862C24.4147 31.1138 24.7772 31.3829 25.0208 31.7478C25.2643 32.1127 25.3739 32.5508 25.3307 32.9873C25.2875 33.4239 25.0944 33.832 24.7841 34.1421C24.6077 34.3183 24.3983 34.458 24.168 34.5532C23.9376 34.6485 23.6907 34.6974 23.4414 34.6972ZM23.4414 28.1797C22.5276 28.1794 21.6342 28.4502 20.8743 28.9577C20.1144 29.4652 19.522 30.1867 19.1722 31.0309C18.8224 31.8752 18.7308 32.8041 18.909 33.7004C19.0872 34.5966 19.5273 35.4199 20.1734 36.0661C20.8196 36.7122 21.6428 37.1523 22.5391 37.3305C23.4354 37.5087 24.3644 37.4171 25.2086 37.0673C26.0528 36.7174 26.7743 36.1251 27.2818 35.3652C27.7893 34.6053 28.0601 33.712 28.0599 32.7981C28.0595 31.5733 27.5728 30.3988 26.7067 29.5328C25.8407 28.6667 24.6661 28.18 23.4414 28.1797Z" fill="#231F20"/>
<defs>
<linearGradient id="paint0_linear" x1="32" y1="0" x2="32" y2="64" gradientUnits="userSpaceOnUse">
<stop stop-color="#7FB0F8"/>
<stop offset="1" stop-color="#D5D3FF"/>
</linearGradient>
</defs>
</svg>
