<svg width="460" height="184" viewBox="0 0 460 184" fill="none" xmlns="http://www.w3.org/2000/svg">
<g filter="url(#filter0_b_1_210)">
<path d="M0 0H460V167.764C460 176.605 452.833 183.771 443.992 183.771H16.0077C7.16688 183.771 0 176.605 0 167.764V0Z" fill="#735942" fill-opacity="0.2"/>
<path d="M125.951 56.5054H136.037V71.9565H136.145L147.527 56.5054H159.674L145.682 74.1261L160.757 94.3518H147.904L136.145 77.1654H136.037V94.3518H125.951V56.5054Z" fill="white"/>
<path d="M165.364 56.5054H192.04V63.6615H175.449V71.4692H191.116V78.6284H175.449V87.1905H192.636V94.3518H165.364V56.5054Z" fill="white"/>
<path d="M199.461 56.5054H212.317L225.105 82.208H225.213L225.053 56.5054H234.273V94.3518H221.741L208.517 68.487H208.405L208.731 94.3518H199.461V56.5054Z" fill="white"/>
<path d="M248.527 63.9858H239.207V56.5054H267.935V63.9858H258.609V94.3518H248.527V63.9858Z" fill="white"/>
<path d="M279.973 56.5054H292.333L306.914 94.3518H295.855L293.036 86.273H278.832L275.853 94.3518H265.599L279.973 56.5054ZM286.154 64.31H286.043L281.163 79.1147H290.652L286.154 64.31Z" fill="white"/>
<path d="M314.239 63.9858H304.917V56.5054H333.648V63.9858H324.328V94.3518H314.239V63.9858Z" fill="white"/>
<path d="M86.4781 64.3408H73.6084V51.4609H86.4781V64.3408Z" fill="#E20E17"/>
<path d="M86.4781 99.3364H73.6084V86.4575H86.4781V99.3364Z" fill="#E20E17"/>
<path d="M56.0722 81.8381L67.2005 75.364L73.6767 86.4913L62.5473 92.9654L56.0722 81.8381Z" fill="#E20E17"/>
<path d="M62.6147 57.7544L73.7246 64.2744L67.2067 75.3762L56.1008 68.8552L62.6147 57.7544Z" fill="#E20E17"/>
<path d="M104.053 81.8381L92.9224 75.364L86.4483 86.4913L97.5756 92.9654L104.053 81.8381Z" fill="#E20E17"/>
<path d="M97.5044 57.7544L86.4036 64.2744L92.9185 75.3762L104.024 68.8552L97.5044 57.7544Z" fill="#E20E17"/>
<path d="M338.529 85.026C341.131 86.434 344.764 87.5147 348.94 87.5147C352.138 87.5147 355.177 86.8663 355.177 83.8301C355.177 76.7851 337.287 81.2282 337.287 67.4573C337.287 58.3456 346.173 55.8569 353.76 55.8569C357.4 55.8569 360.976 56.4014 363.52 57.2659L362.872 65.0736C360.27 63.8828 357.34 63.3394 354.469 63.3394C351.919 63.3394 347.694 63.5555 347.694 66.8649C347.694 72.9863 365.583 68.8683 365.583 82.5343C365.583 92.3433 357.34 94.9972 348.94 94.9972C345.415 94.9972 341.023 94.4568 337.66 93.3761L338.529 85.026Z" fill="white"/>
<path d="M404.727 79.9824C404.727 90.3379 398.001 94.9982 388.134 94.9982C378.267 94.9982 371.544 90.3379 371.544 79.9824V56.5054H381.63V78.3042C381.63 83.2918 382.984 87.5148 388.135 87.5148C393.286 87.5148 394.643 83.2918 394.643 78.3042V56.5054H404.728V79.9824H404.727Z" fill="white"/>
<path d="M258.762 128.217V106.178H264.774V115.089H265.076L271.737 106.178H278.743L271.261 115.992L278.916 128.217H271.736L266.763 119.952L264.774 122.535V128.217H258.762Z" fill="white"/>
<path d="M292.358 128.216H285.871L293.18 106.178H301.398L308.707 128.216H302.219L297.375 112.246H297.202L292.358 128.216ZM291.147 119.522H303.344V123.998H291.147V119.522Z" fill="white"/>
<path d="M322.926 106.178V128.216H316.915V106.178H322.926Z" fill="white"/>
<path d="M331.956 128.216V124.902L342.423 110.998H332V106.177H350.079V109.491L339.612 123.395H350.035V128.216H331.956Z" fill="white"/>
<path d="M359.109 128.216V106.178H375.068V110.999H365.12V114.787H374.246V119.608H365.12V123.396H375.024V128.217H359.108L359.109 128.216Z" fill="white"/>
<path d="M403.3 106.178V128.216H398.283L390.281 116.637H390.152V128.216H384.141V106.178H389.244L397.115 117.714H397.289V106.178H403.3Z" fill="white"/>
</g>
<defs>
<filter id="filter0_b_1_210" x="-12.0057" y="-12.0057" width="484.011" height="207.783" filterUnits="userSpaceOnUse" color-interpolation-filters="sRGB">
<feFlood flood-opacity="0" result="BackgroundImageFix"/>
<feGaussianBlur in="BackgroundImageFix" stdDeviation="6.00287"/>
<feComposite in2="SourceAlpha" operator="in" result="effect1_backgroundBlur_1_210"/>
<feBlend mode="normal" in="SourceGraphic" in2="effect1_backgroundBlur_1_210" result="shape"/>
</filter>
</defs>
</svg>
